<svg width="125" height="56" viewBox="0 0 125 56" fill="none" xmlns="http://www.w3.org/2000/svg">
<path d="M120.639 17.6484L120.194 20.4449L102.372 17.6107L103.924 1.78786L122.012 3.66416L122.356 6.85279L114.251 11.4315L120.639 17.6484Z" fill="#E9FF5E"/>
<path d="M121.041 21.9343L101.221 18.7824L101.68 15.8958L120.428 18.8774L120.25 19.6346L114.361 12.852L112.805 11.0059L114.857 9.73374L122.522 5.1066L122.478 5.86693L103.748 2.88833L104.205 0.0195614L124.024 3.17152L123.285 7.82214L116.047 12.1883L116.254 10.8876L121.78 17.2837L121.041 21.9343Z" fill="#1C1C1E"/>
<rect x="107.104" y="0.884613" width="33.6285" height="3.12207" transform="rotate(99.036 107.104 0.884613)" fill="#1C1C1E"/>
<path d="M30.0658 39.5739V39.3348L32.5168 33.5958L33.5929 31.2942L38.764 18.5608H41.8427V18.7999L33.1146 39.5739H30.0658ZM32.5168 33.5958L26.5088 18.7999V18.5608H29.5875L34.7885 31.7725V33.5958H32.5168Z" fill="#1C1C1E"/>
<path d="M18.5784 34.0137C17.5621 34.0137 16.6454 33.8145 15.8284 33.4159C15.0313 33.0174 14.4036 32.4694 13.9453 31.7719C13.487 31.0546 13.2578 30.2376 13.2578 29.3209C13.2578 27.9459 13.7361 26.8499 14.6926 26.0329C15.6491 25.196 17.0041 24.7078 18.7577 24.5683L24.5565 24.09V26.6606L19.2658 27.0791C18.2496 27.1588 17.5023 27.378 17.024 27.7367C16.5458 28.0954 16.3067 28.5836 16.3067 29.2013C16.3067 29.7992 16.5657 30.2973 17.0838 30.6959C17.6019 31.0745 18.2595 31.2638 19.0566 31.2638C19.8935 31.2638 20.6508 31.0645 21.3283 30.666C22.0257 30.2674 22.5737 29.7394 22.9723 29.0818C23.3708 28.4043 23.5701 27.6769 23.5701 26.8998V24.4487C23.5701 23.3926 23.2313 22.5258 22.5538 21.8482C21.8962 21.1707 21.0194 20.832 19.9234 20.832C19.0068 20.832 18.2396 21.0512 17.6219 21.4896C17.024 21.9279 16.6255 22.5058 16.4262 23.2232H16.0974L13.5268 22.5058C13.9254 21.1707 14.6826 20.1046 15.7985 19.3075C16.9144 18.5105 18.2894 18.1119 19.9234 18.1119C22.0158 18.1119 23.6398 18.7296 24.7956 19.9651C25.9514 21.1807 26.5293 22.8944 26.5293 25.1063V33.5953H23.7793V29.2312L24.8554 29.56C24.6163 30.377 24.1878 31.1243 23.5701 31.8018C22.9723 32.4794 22.2449 33.0174 21.3881 33.4159C20.5312 33.8145 19.5946 34.0137 18.5784 34.0137Z" fill="#1C1C1E"/>
<path d="M6.30693 34.0132C4.69284 34.0132 3.32783 33.6345 2.21191 32.8773C1.09599 32.1002 0.358688 31.034 0 29.679L2.72005 28.9915L3.07874 29.0812C3.27801 29.7786 3.68652 30.3266 4.30426 30.7252C4.94193 31.1038 5.67923 31.2931 6.51617 31.2931C7.33318 31.2931 8.03063 31.1138 8.60851 30.7551C9.1864 30.3964 9.47534 29.9181 9.47534 29.3203C9.47534 28.8221 9.30596 28.4336 8.9672 28.1546C8.62844 27.8557 8.1203 27.6265 7.44278 27.4671L4.63306 26.8394C3.21823 26.5206 2.16209 26.0025 1.46464 25.2851C0.767194 24.5478 0.41847 23.661 0.41847 22.6248C0.41847 21.7281 0.667558 20.9509 1.16574 20.2933C1.66391 19.6158 2.34144 19.0877 3.1983 18.7091C4.0751 18.3305 5.06149 18.1412 6.15748 18.1412C7.71179 18.1412 9.02698 18.5298 10.103 19.3069C11.1791 20.0642 11.8865 21.1402 12.2253 22.5351L9.59491 23.1031L9.26611 23.0433C9.08677 22.3658 8.68822 21.8377 8.07048 21.4591C7.47267 21.0605 6.79515 20.8613 6.03792 20.8613C5.30061 20.8613 4.67291 21.0207 4.1548 21.3395C3.65663 21.6384 3.40754 22.037 3.40754 22.5351C3.40754 22.9337 3.56695 23.2824 3.88579 23.5813C4.20462 23.8603 4.69284 24.0695 5.35043 24.209L8.19005 24.8666C9.6248 25.1854 10.6909 25.6936 11.3883 26.391C12.1057 27.0885 12.4644 28.0051 12.4644 29.141C12.4644 30.1373 12.1954 31.0042 11.6574 31.7415C11.1393 32.4588 10.4119 33.0168 9.47534 33.4153C8.5587 33.8139 7.50256 34.0132 6.30693 34.0132Z" fill="#1C1C1E"/>
<path d="M104.397 56.0001V35.9969L107.253 35.6635L107.341 35.8858V56.0001H104.397Z" fill="#1C1C1E"/>
<path d="M95.7202 55.9627C94.2256 55.9627 92.9005 55.6339 91.7447 54.9763C90.6089 54.2988 89.7221 53.3622 89.0844 52.1666C88.4468 50.971 88.1279 49.5861 88.1279 48.0118C88.1279 46.4376 88.4368 45.0626 89.0545 43.8869C89.6922 42.6913 90.569 41.7647 91.6849 41.1071C92.8208 40.4296 94.126 40.0908 95.6006 40.0908C97.0553 40.0908 98.3206 40.4296 99.3967 41.1071C100.493 41.7846 101.34 42.7411 101.937 43.9766C102.555 45.1921 102.864 46.6169 102.864 48.2509V48.6993L102.416 49.1477H89.6524V46.5173H101.429L99.9049 47.1151C99.865 46.2184 99.6458 45.4512 99.2473 44.8135C98.8686 44.1758 98.3605 43.6876 97.7228 43.3489C97.1051 42.9902 96.4076 42.8108 95.6305 42.8108C94.7936 42.8108 94.0264 43.0101 93.3289 43.4087C92.6315 43.8072 92.0835 44.3652 91.6849 45.0825C91.3063 45.78 91.117 46.597 91.117 47.5336V48.4303C91.117 49.3469 91.3163 50.1739 91.7148 50.9112C92.1134 51.6286 92.6614 52.1965 93.3588 52.615C94.0562 53.0335 94.8434 53.2427 95.7202 53.2427C96.5571 53.2427 97.2944 53.0335 97.9321 52.615C98.5897 52.1766 99.1078 51.5987 99.4864 50.8813H99.8451L102.266 51.9275C101.688 53.1829 100.831 54.1693 99.6956 54.8867C98.5598 55.604 97.2346 55.9627 95.7202 55.9627Z" fill="#1C1C1E"/>
<path d="M80.2984 55.5429L80.5076 53.7196L85.7684 40.5079H88.8471V40.747L82.7793 55.5429H80.2984ZM79.85 55.5429L73.7822 40.747V40.5079H76.861L82.1217 53.7196L82.331 55.5429H79.85Z" fill="#1C1C1E"/>
<path d="M65.8508 55.9633C64.8345 55.9633 63.9179 55.7641 63.1009 55.3655C62.3038 54.967 61.6761 54.419 61.2178 53.7215C60.7594 53.0042 60.5303 52.1871 60.5303 51.2705C60.5303 49.8955 61.0085 48.7995 61.965 47.9825C62.9215 47.1456 64.2766 46.6574 66.0302 46.5179L71.8289 46.0396V48.6102L66.5383 49.0287C65.522 49.1084 64.7747 49.3276 64.2965 49.6863C63.8182 50.045 63.5791 50.5332 63.5791 51.1509C63.5791 51.7487 63.8382 52.2469 64.3563 52.6455C64.8744 53.0241 65.532 53.2134 66.3291 53.2134C67.166 53.2134 67.9232 53.0141 68.6008 52.6156C69.2982 52.217 69.8462 51.689 70.2447 51.0314C70.6433 50.3538 70.8426 49.6265 70.8426 48.8493V46.3983C70.8426 45.3422 70.5038 44.4753 69.8263 43.7978C69.1687 43.1203 68.2919 42.7815 67.1959 42.7815C66.2792 42.7815 65.5121 43.0007 64.8943 43.4391C64.2965 43.8775 63.898 44.4554 63.6987 45.1728H63.3699L60.7993 44.4554C61.1978 43.1203 61.9551 42.0542 63.071 41.2571C64.1869 40.46 65.5619 40.0615 67.1959 40.0615C69.2882 40.0615 70.9123 40.6792 72.0681 41.9147C73.2238 43.1303 73.8017 44.844 73.8017 47.0559V55.5449H71.0518V51.1808L72.1279 51.5096C71.8887 52.3266 71.4603 53.0739 70.8426 53.7514C70.2447 54.4289 69.5174 54.967 68.6605 55.3655C67.8037 55.7641 66.8671 55.9633 65.8508 55.9633Z" fill="#1C1C1E"/>
<path d="M52.1738 55.5429V40.5079H55.0134V44.5431L54.2064 44.2741C54.6049 43.1183 55.2825 42.2017 56.239 41.5242C57.2154 40.8466 58.3313 40.5079 59.5867 40.5079H61.0514V43.2578H59.1085C58.3114 43.2578 57.6139 43.4471 57.0161 43.8257C56.4382 44.1844 55.9799 44.6926 55.6411 45.3502C55.3223 46.0078 55.1629 46.7849 55.1629 47.6816V55.5429H52.1738Z" fill="#1C1C1E"/>
<path d="M47.8222 55.5431C46.4472 55.5431 45.3313 55.1047 44.4744 54.2279C43.6375 53.3511 43.219 52.1654 43.219 50.6709V36.5326H46.2081V50.4019C46.2081 51.2189 46.3974 51.8267 46.776 52.2252C47.1746 52.6038 47.7823 52.7931 48.5994 52.7931H50.2732L50.4227 53.1219V55.5431H47.8222ZM40.6484 43.258V40.5081H50.4227V43.258H40.6484Z" fill="#1C1C1E"/>
<path d="M91.3943 16.5106C94.3648 15.9209 96.8122 16.5362 98.4395 18.1765C100.033 19.7828 100.561 22.0947 100.298 24.3238C99.7717 28.799 96.0366 33.5506 89.5953 34.169L89.5179 34.1765L89.44 34.1759C86.4614 34.1515 84.3731 32.8588 83.1682 30.9552C82.3466 29.6572 81.9865 28.1578 81.9532 26.743C81.3064 26.8097 80.625 26.8637 79.9077 26.9025L77.8087 27.0494L77.5996 23.934L79.7464 23.7838C80.7898 23.7274 81.7301 23.6391 82.5758 23.527C83.6403 20.7756 85.1289 19.0506 86.7483 18.2217C88.5479 17.3005 90.7401 17.4875 91.8298 19.1022C91.8585 19.1449 91.8859 19.1883 91.9123 19.232L91.3943 16.5106ZM96.2911 20.3992C95.5825 19.6849 94.2909 19.1422 92.082 19.5564C92.4091 20.287 92.4318 21.1246 92.1439 21.9279C91.8081 22.8648 91.0885 23.6742 90.1225 24.3341C88.9522 25.1336 87.2806 25.8115 85.0131 26.2809C84.9703 27.3202 85.198 28.4091 85.7366 29.2601C86.336 30.2071 87.4133 31.0152 89.3886 31.0514C94.3052 30.5441 96.904 26.9918 97.2618 23.9512C97.4426 22.4144 97.0446 21.1587 96.2911 20.3992ZM89.2695 20.8594C89.1478 20.7942 88.7957 20.6666 88.1185 21.0133C87.6347 21.261 87.0238 21.7651 86.4184 22.6842C87.3034 22.3838 87.9574 22.056 88.4221 21.7385C89.0323 21.3216 89.221 20.9897 89.2695 20.8594Z" fill="#1C1C1E"/>
<path d="M62.8352 18.4652C64.641 17.5579 66.8407 17.742 67.9341 19.3324C68.4919 20.1437 68.6002 21.1546 68.2493 22.1155C67.9124 23.0383 67.1903 23.8354 66.2211 24.4854C65.0467 25.2728 63.3694 25.9405 61.0941 26.4028C61.0512 27.4265 61.2796 28.499 61.8201 29.3372C62.4216 30.2699 63.5027 31.066 65.4852 31.1014C69.7789 30.6655 71.8645 27.9303 72.6453 25.073L74.79 25.9636C74.6299 26.5493 75.2396 27.0588 74.9854 27.636C73.5789 30.829 70.6781 33.7022 65.692 34.172L65.6143 34.1794L65.5362 34.1789C62.5474 34.1548 60.452 32.8816 59.2429 31.0067C58.4185 29.7283 58.0572 28.2515 58.0238 26.858C57.3748 26.9237 56.691 26.9769 55.9712 27.015L54.2664 27.1598L54.0566 24.0914L55.7974 23.9442L55.8094 23.9436C56.8564 23.8881 57.7999 23.8008 58.6485 23.6905C59.7167 20.9805 61.2103 19.2816 62.8352 18.4652ZM65.3651 21.0631C65.243 20.9989 64.8897 20.8732 64.2102 21.2146C63.7247 21.4586 63.1117 21.9551 62.5042 22.8604C63.3923 22.5645 64.0485 22.2417 64.5148 21.929C65.1272 21.5183 65.3164 21.1914 65.3651 21.0631Z" fill="#1C1C1E"/>
<path d="M43.0859 33.5945V12.0732L45.9853 11.7145L46.075 11.9536V22.5947L45.1185 22.3257C45.4174 21.4688 45.8658 20.7315 46.4636 20.1138C47.0614 19.4761 47.7588 18.9879 48.5559 18.6491C49.3729 18.3104 50.2398 18.141 51.1564 18.141C52.2325 18.141 53.1989 18.3702 54.0558 18.8285C54.9127 19.2868 55.5902 19.9743 56.0884 20.8909C56.5866 21.7877 56.8356 22.9135 56.8356 24.2686V33.5945H53.8466V25.1055C53.8466 24.0892 53.6971 23.2822 53.3982 22.6844C53.0993 22.0666 52.6908 21.6183 52.1727 21.3393C51.6745 21.0603 51.0867 20.9208 50.4092 20.9208C49.7316 20.9208 49.0541 21.0902 48.3766 21.429C47.719 21.7677 47.171 22.2958 46.7326 23.0132C46.2942 23.7306 46.075 24.6671 46.075 25.8229V33.5945H43.0859Z" fill="#1C1C1E"/>
<path d="M77.5625 33.5945V12.0732L80.4619 11.7145L80.5516 11.9536V33.5945H77.5625Z" fill="#1C1C1E"/>
<path d="M72.3535 33.5945V12.0732L75.2529 11.7145L75.3426 11.9536V33.5945H72.3535Z" fill="#1C1C1E"/>
</svg>
