<svg width="133" height="55" viewBox="0 0 133 55" fill="none" xmlns="http://www.w3.org/2000/svg">
<path d="M36.9828 34.2677V33.9735L39.9978 26.9141L41.3214 24.083L47.6823 8.41986H51.4693V8.714L40.7331 34.2677H36.9828ZM39.9978 26.9141L32.6074 8.714V8.41986H36.3945L42.7921 24.6713V26.9141H39.9978Z" fill="#202020"/>
<path d="M22.8533 27.4288C21.6032 27.4288 20.4756 27.1837 19.4706 26.6935C18.4902 26.2032 17.718 25.5292 17.1543 24.6712C16.5905 23.7888 16.3086 22.7838 16.3086 21.6563C16.3086 19.9649 16.8969 18.6168 18.0735 17.6118C19.25 16.5823 20.9168 15.9818 23.0739 15.8102L30.2069 15.2219V18.3839L23.6989 18.8987C22.4488 18.9967 21.5296 19.2664 20.9413 19.7076C20.3531 20.1488 20.0589 20.7493 20.0589 21.5092C20.0589 22.2446 20.3776 22.8574 21.0149 23.3476C21.6522 23.8133 22.4611 24.0462 23.4416 24.0462C24.4711 24.0462 25.4025 23.8011 26.2359 23.3108C27.0938 22.8206 27.7679 22.171 28.2582 21.3621C28.7484 20.5287 28.9935 19.634 28.9935 18.6781V15.6631C28.9935 14.364 28.5768 13.2977 27.7434 12.4643C26.9345 11.6309 25.856 11.2142 24.5078 11.2142C23.3803 11.2142 22.4366 11.4838 21.6767 12.0231C20.9413 12.5623 20.4511 13.2732 20.206 14.1556H19.8015L16.6395 13.2732C17.1297 11.6309 18.0612 10.3195 19.4339 9.33903C20.8065 8.35855 22.4979 7.86832 24.5078 7.86832C27.0816 7.86832 29.0793 8.62819 30.501 10.1479C31.9227 11.6432 32.6335 13.7512 32.6335 16.472V26.9141H29.2509V21.546L30.5745 21.9504C30.2804 22.9554 29.7534 23.8746 28.9935 24.708C28.2582 25.5414 27.3635 26.2032 26.3095 26.6935C25.2554 27.1837 24.1034 27.4288 22.8533 27.4288Z" fill="#202020"/>
<path d="M7.75802 27.4288C5.77256 27.4288 4.09349 26.9631 2.72082 26.0317C1.34816 25.0757 0.441215 23.7643 0 22.0975L3.34588 21.2518L3.78709 21.3621C4.03221 22.22 4.53471 22.8941 5.29457 23.3844C6.07896 23.8501 6.9859 24.083 8.0154 24.083C9.02039 24.083 9.8783 23.8623 10.5891 23.4211C11.3 22.9799 11.6554 22.3916 11.6554 21.6563C11.6554 21.0435 11.4471 20.5655 11.0304 20.2223C10.6137 19.8546 9.98861 19.5728 9.1552 19.3767L5.69902 18.6045C3.95867 18.2124 2.65954 17.575 1.80163 16.6926C0.943709 15.7857 0.51475 14.6949 0.51475 13.4203C0.51475 12.3172 0.821149 11.3613 1.43395 10.5524C2.04675 9.71897 2.88015 9.06941 3.93416 8.60368C5.01269 8.13795 6.22603 7.90509 7.57418 7.90509C9.48611 7.90509 11.1039 8.38307 12.4275 9.33904C13.7512 10.2705 14.6214 11.5941 15.0381 13.31L11.8025 14.0086L11.398 13.935C11.1774 13.1016 10.6872 12.4521 9.92733 11.9863C9.19197 11.4961 8.35856 11.251 7.42711 11.251C6.52017 11.251 5.74804 11.4471 5.11074 11.8393C4.49794 12.2069 4.19154 12.6972 4.19154 13.31C4.19154 13.8002 4.38763 14.2292 4.77982 14.5968C5.17201 14.94 5.77256 15.1974 6.58145 15.369L10.0744 16.1779C11.8393 16.5701 13.1506 17.1951 14.0086 18.053C14.891 18.9109 15.3322 20.0385 15.3322 21.4357C15.3322 22.6613 15.0013 23.7275 14.3395 24.6345C13.7022 25.5169 12.8075 26.2032 11.6554 26.6935C10.5279 27.1837 9.22874 27.4288 7.75802 27.4288Z" fill="#202020"/>
<path d="M128.712 53.9141V27.4412L132.278 27L132.389 27.2941V53.9141H128.712Z" fill="#202020"/>
<path d="M117.742 54.4288C115.904 54.4288 114.274 54.0244 112.852 53.2155C111.455 52.3821 110.364 51.23 109.58 49.7593C108.796 48.2886 108.403 46.585 108.403 44.6486C108.403 42.7121 108.783 41.0208 109.543 39.5746C110.328 38.1039 111.406 36.9641 112.779 36.1552C114.176 35.3218 115.781 34.9051 117.595 34.9051C119.385 34.9051 120.941 35.3218 122.265 36.1552C123.613 36.9886 124.655 38.1652 125.39 39.6849C126.15 41.1801 126.53 42.9327 126.53 44.9427V45.4942L125.978 46.0458H110.278V42.8102H124.765L122.89 43.5455C122.841 42.4425 122.571 41.4988 122.081 40.7144C121.615 39.93 120.99 39.3295 120.206 38.9128C119.446 38.4716 118.588 38.251 117.632 38.251C116.603 38.251 115.659 38.4961 114.801 38.9863C113.943 39.4766 113.269 40.1629 112.779 41.0453C112.313 41.9032 112.08 42.9082 112.08 44.0603V45.1633C112.08 46.2909 112.325 47.3081 112.815 48.2151C113.306 49.0975 113.98 49.7961 114.838 50.3108C115.696 50.8256 116.664 51.083 117.742 51.083C118.772 51.083 119.679 50.8256 120.463 50.3108C121.272 49.7716 121.909 49.0607 122.375 48.1783H122.816L125.795 49.4652C125.084 51.0094 124.03 52.2228 122.632 53.1052C121.235 53.9876 119.605 54.4288 117.742 54.4288Z" fill="#202020"/>
<path d="M98.7703 53.9141L99.0277 51.6713L105.499 35.4199H109.286V35.714L101.822 53.9141H98.7703ZM98.2188 53.9141L90.7549 35.714V35.4199H94.542L101.013 51.6713L101.27 53.9141H98.2188Z" fill="#202020"/>
<path d="M81.0007 54.4289C79.7506 54.4289 78.6231 54.1837 77.6181 53.6935C76.6376 53.2033 75.8655 52.5292 75.3017 51.6713C74.7379 50.7888 74.4561 49.7838 74.4561 48.6563C74.4561 46.965 75.0443 45.6168 76.2209 44.6118C77.3975 43.5823 79.0643 42.9818 81.2213 42.8102L88.3543 42.2219V45.384L81.8464 45.8987C80.5963 45.9968 79.6771 46.2664 79.0888 46.7076C78.5005 47.1488 78.2064 47.7494 78.2064 48.5092C78.2064 49.2446 78.525 49.8574 79.1623 50.3476C79.7997 50.8133 80.6085 51.0462 81.589 51.0462C82.6185 51.0462 83.55 50.8011 84.3834 50.3109C85.2413 49.8206 85.9154 49.1711 86.4056 48.3622C86.8959 47.5288 87.141 46.6341 87.141 45.6781V42.6631C87.141 41.364 86.7243 40.2977 85.8909 39.4643C85.082 38.6309 84.0034 38.2142 82.6553 38.2142C81.5277 38.2142 80.584 38.4839 79.8242 39.0231C79.0888 39.5624 78.5986 40.2732 78.3534 41.1557H77.949L74.787 40.2732C75.2772 38.6309 76.2087 37.3195 77.5813 36.3391C78.954 35.3586 80.6453 34.8683 82.6553 34.8683C85.229 34.8683 87.2268 35.6282 88.6485 37.148C90.0701 38.6432 90.781 40.7512 90.781 43.472V53.9141H87.3983V48.546L88.722 48.9504C88.4278 49.9554 87.9008 50.8746 87.141 51.708C86.4056 52.5414 85.5109 53.2033 84.4569 53.6935C83.4029 54.1837 82.2508 54.4289 81.0007 54.4289Z" fill="#202020"/>
<path d="M64.1768 53.9141V35.4199H67.6697V40.3835L66.677 40.0526C67.1672 38.6309 68.0006 37.5034 69.1772 36.67C70.3783 35.8366 71.7509 35.4199 73.2952 35.4199H75.0968V38.8025H72.7069C71.7264 38.8025 70.8685 39.0354 70.1332 39.5011C69.4223 39.9423 68.8585 40.5674 68.4418 41.3763C68.0496 42.1852 67.8535 43.1411 67.8535 44.2442V53.9141H64.1768Z" fill="#202020"/>
<path d="M58.8243 53.9141C57.133 53.9141 55.7603 53.3748 54.7063 52.2963C53.6768 51.2178 53.162 49.7593 53.162 47.9209V30.5297H56.8388V47.59C56.8388 48.595 57.0717 49.3426 57.5374 49.8329C58.0277 50.2986 58.7753 50.5315 59.7803 50.5315H61.8393L62.0231 50.9359V53.9141H58.8243ZM50 38.8025V35.4199H62.0231V38.8025H50Z" fill="#202020"/>
<path d="M114.968 5.90231C118.623 5.17695 121.633 5.93386 123.635 7.95156C125.595 9.92742 126.244 12.7712 125.921 15.5132C125.273 21.0181 120.679 26.8628 112.756 27.6235L112.66 27.6328L112.565 27.6321C108.901 27.602 106.332 26.012 104.85 23.6703C103.839 22.0737 103.396 20.2293 103.355 18.489C102.56 18.571 101.721 18.6375 100.839 18.6851L98.2572 18.8659L98 15.0337L100.641 14.8489C101.924 14.7796 103.081 14.6709 104.121 14.5331C105.431 11.1486 107.262 9.02677 109.254 8.00714C111.467 6.87402 114.164 7.10402 115.504 9.09026C115.54 9.14274 115.573 9.19608 115.606 9.24986L114.968 5.90231ZM120.992 10.6856C120.12 9.807 118.532 9.13945 115.814 9.64886C116.217 10.5476 116.245 11.578 115.891 12.566C115.478 13.7185 114.592 14.7141 113.404 15.5258C111.965 16.5093 109.908 17.3431 107.119 17.9206C107.067 19.199 107.347 20.5384 108.009 21.5853C108.746 22.75 110.072 23.7442 112.501 23.7887C118.549 23.1646 121.746 18.795 122.186 15.0549C122.408 13.1644 121.919 11.6198 120.992 10.6856ZM112.355 11.2517C112.205 11.1715 111.772 11.0146 110.939 11.441C110.344 11.7457 109.593 12.3658 108.848 13.4964C109.936 13.1268 110.741 12.7236 111.312 12.3331C112.063 11.8203 112.295 11.412 112.355 11.2517Z" fill="url(#paint0_linear_4610_28963)"/>
<path d="M77.2921 8.30298C79.5134 7.18695 82.2191 7.41348 83.5641 9.36976C84.2502 10.3677 84.3834 11.6112 83.9519 12.7932C83.5374 13.9283 82.6492 14.9088 81.4569 15.7083C80.0124 16.677 77.9492 17.4982 75.1504 18.067C75.0976 19.3262 75.3786 20.6454 76.0434 21.6764C76.7833 22.8238 78.1131 23.803 80.5518 23.8466C85.8334 23.3104 88.3989 19.9459 89.3593 16.4312L93 17.4304C91.7138 22.1372 88.0481 26.9412 80.8061 27.6237L80.7106 27.6328L80.6144 27.6321C76.938 27.6025 74.3605 26.0364 72.8732 23.7301C71.8592 22.1575 71.4147 20.3409 71.3736 18.6269C70.5753 18.7076 69.7342 18.7731 68.8488 18.82L66.258 18.998L66 15.2236L68.635 15.0426L68.6498 15.0419C69.9377 14.9737 71.0983 14.8663 72.142 14.7306C73.456 11.3971 75.2933 9.30724 77.2921 8.30298ZM80.404 11.4986C80.2538 11.4197 79.8192 11.2651 78.9834 11.6851C78.3862 11.9851 77.6322 12.5959 76.8849 13.7095C77.9773 13.3455 78.7845 12.9484 79.3581 12.5637C80.1113 12.0586 80.3441 11.6565 80.404 11.4986Z" fill="url(#paint1_linear_4610_28963)"/>
<path d="M53 26.9141V0.441215L56.5665 0L56.6768 0.294144V13.3835L55.5002 13.0526C55.8679 11.9986 56.4194 11.0916 57.1548 10.3318C57.8901 9.54739 58.748 8.94685 59.7285 8.53015C60.7335 8.11345 61.7998 7.90509 62.9273 7.90509C64.251 7.90509 65.4398 8.18698 66.4938 8.75076C67.5478 9.31453 68.3812 10.1602 68.994 11.2877C69.6068 12.3908 69.9132 13.7757 69.9132 15.4425V26.9141H66.2364V16.472C66.2364 15.2219 66.0526 14.2292 65.6849 13.4938C65.3172 12.7339 64.8147 12.1824 64.1774 11.8393C63.5646 11.4961 62.8415 11.3245 62.0081 11.3245C61.1747 11.3245 60.3413 11.5329 59.5079 11.9496C58.699 12.3663 58.0249 13.0158 57.4857 13.8983C56.9464 14.7807 56.6768 15.9327 56.6768 17.3544V26.9141H53Z" fill="url(#paint2_linear_4610_28963)"/>
<path d="M96.0664 26.9141V0.441215L99.6329 0L99.7432 0.294144V26.9141H96.0664Z" fill="url(#paint3_linear_4610_28963)"/>
<path d="M89 26.9141V0.441215L92.5665 0L92.6768 0.294144V26.9141H89Z" fill="url(#paint4_linear_4610_28963)"/>
<defs>
<linearGradient id="paint0_linear_4610_28963" x1="98" y1="16.6328" x2="126" y2="16.6328" gradientUnits="userSpaceOnUse">
<stop stop-color="#E9FF5E"/>
<stop offset="0.235577" stop-color="#EAF890"/>
<stop offset="0.485577" stop-color="#E7FF4F"/>
<stop offset="0.788462" stop-color="#EDFA98"/>
<stop offset="1" stop-color="#E9FF5E"/>
</linearGradient>
<linearGradient id="paint1_linear_4610_28963" x1="66" y1="17.6328" x2="93" y2="17.6328" gradientUnits="userSpaceOnUse">
<stop stop-color="#E9FF5E"/>
<stop offset="0.235577" stop-color="#EAF890"/>
<stop offset="0.485577" stop-color="#E7FF4F"/>
<stop offset="0.788462" stop-color="#EDFA98"/>
<stop offset="1" stop-color="#E9FF5E"/>
</linearGradient>
<linearGradient id="paint2_linear_4610_28963" x1="53" y1="13.457" x2="69.9132" y2="13.457" gradientUnits="userSpaceOnUse">
<stop stop-color="#E9FF5E"/>
<stop offset="0.235577" stop-color="#EAF890"/>
<stop offset="0.485577" stop-color="#E7FF4F"/>
<stop offset="0.788462" stop-color="#EDFA98"/>
<stop offset="1" stop-color="#E9FF5E"/>
</linearGradient>
<linearGradient id="paint3_linear_4610_28963" x1="96.0664" y1="13.457" x2="99.7432" y2="13.457" gradientUnits="userSpaceOnUse">
<stop stop-color="#E9FF5E"/>
<stop offset="0.235577" stop-color="#EAF890"/>
<stop offset="0.485577" stop-color="#E7FF4F"/>
<stop offset="0.788462" stop-color="#EDFA98"/>
<stop offset="1" stop-color="#E9FF5E"/>
</linearGradient>
<linearGradient id="paint4_linear_4610_28963" x1="89" y1="13.457" x2="92.6768" y2="13.457" gradientUnits="userSpaceOnUse">
<stop stop-color="#E9FF5E"/>
<stop offset="0.235577" stop-color="#EAF890"/>
<stop offset="0.485577" stop-color="#E7FF4F"/>
<stop offset="0.788462" stop-color="#EDFA98"/>
<stop offset="1" stop-color="#E9FF5E"/>
</linearGradient>
</defs>
</svg>
