<svg viewBox="0 0 20 20" xmlns="http://www.w3.org/2000/svg">
  <path opacity="0.4" d="M2.39453 7.18311H16.7606V14.3662C16.7606 16.1293 15.3313 17.5586 13.5682 17.5586H5.587C3.82385 17.5586 2.39453 16.1293 2.39453 14.3662V7.18311Z" />
  <path d="M13.5682 2.79346H5.587C3.82385 2.79346 2.39453 4.22277 2.39453 5.98593V7.1831H16.7606V5.98593C16.7606 4.22277 15.3313 2.79346 13.5682 2.79346Z" />
  <path opacity="0.4" fill-rule="evenodd" clip-rule="evenodd" d="M6.38472 0.997681C6.71531 0.997681 6.98331 1.26568 6.98331 1.59627V3.99062C6.98331 4.32121 6.71531 4.58921 6.38472 4.58921C6.05413 4.58921 5.78613 4.32121 5.78613 3.99062V1.59627C5.78613 1.26568 6.05413 0.997681 6.38472 0.997681ZM12.7697 0.997681C13.1002 0.997681 13.3682 1.26568 13.3682 1.59627V3.99062C13.3682 4.32121 13.1002 4.58921 12.7697 4.58921C12.4391 4.58921 12.1711 4.32121 12.1711 3.99062V1.59627C12.1711 1.26568 12.4391 0.997681 12.7697 0.997681Z" />
</svg>
