<svg  viewBox="0 0 24 24" fill="none" xmlns="http://www.w3.org/2000/svg">
<path d="M11.0482 3.35156H5.04824C3.06002 3.35156 1.44824 4.96333 1.44824 6.95156V18.9517C1.44824 20.9399 3.06002 22.5517 5.04824 22.5517H17.0482C19.0365 22.5517 20.6482 20.9399 20.6482 18.9517L20.6482 12.9516M7.44824 16.5516L11.8142 15.6718C12.046 15.6251 12.2588 15.511 12.426 15.3438L22.1996 5.56474C22.6682 5.09588 22.6679 4.33589 22.1989 3.86743L20.1285 1.79936C19.6597 1.33109 18.9001 1.33141 18.4317 1.80007L8.657 11.5801C8.49019 11.747 8.37629 11.9594 8.32954 12.1907L7.44824 16.5516Z" stroke="#98B7DE" stroke-width="1.5" stroke-linecap="round" stroke-linejoin="round"/>
</svg>
