<svg  viewBox="0 0 24 25"  xmlns="http://www.w3.org/2000/svg">
<path d="M15 13.5C16.3979 13.5 17.5722 14.4561 17.9053 15.75H21C21.4142 15.75 21.75 16.0858 21.75 16.5C21.75 16.9142 21.4142 17.25 21 17.25H17.9053C17.5722 18.5439 16.3979 19.5 15 19.5C13.3431 19.5 12 18.1569 12 16.5C12 14.8431 13.3431 13.5 15 13.5ZM9 15.75C9.41421 15.75 9.75 16.0858 9.75 16.5C9.75 16.9142 9.41421 17.25 9 17.25H3C2.58579 17.25 2.25 16.9142 2.25 16.5C2.25 16.0858 2.58579 15.75 3 15.75H9ZM9 5.5C10.6569 5.5 12 6.84315 12 8.5C12 10.1569 10.6569 11.5 9 11.5C7.60214 11.5 6.42778 10.5439 6.09473 9.25H3C2.58579 9.25 2.25 8.91421 2.25 8.5C2.25 8.08579 2.58579 7.75 3 7.75H6.09473C6.42778 6.45611 7.60214 5.5 9 5.5ZM21 7.75C21.4142 7.75 21.75 8.08579 21.75 8.5C21.75 8.91421 21.4142 9.25 21 9.25H15C14.5858 9.25 14.25 8.91421 14.25 8.5C14.25 8.08579 14.5858 7.75 15 7.75H21Z" />
</svg>
