<svg viewBox="0 0 23 23" xmlns="http://www.w3.org/2000/svg">
  <path d="M6.27222 2C2.80784 2 0 4.66357 0 7.94993C0 13.6703 6.99485 19.1362 10.2628 21.5703C10.2659 21.5727 10.269 21.5751 10.2721 21.5774C10.2945 21.5941 10.325 21.6178 10.347 21.6342L10.3489 21.6325C10.6804 21.8701 11.0844 21.9991 11.5 22C11.9162 21.9995 12.3209 21.8705 12.653 21.6325V21.6342C12.6594 21.6294 12.669 21.6231 12.6755 21.6183C12.6804 21.6146 12.6874 21.6095 12.6923 21.6058C12.6986 21.6005 12.7048 21.5952 12.711 21.5898C15.9688 19.1645 23 13.6839 23 7.94993C23 4.66357 20.1922 2 16.7278 2C13.4167 2 11.5 5.63636 11.5 5.63636C11.5 5.63636 9.58326 2 6.27222 2Z" />
</svg>
