<svg  viewBox="0 0 25 25"  xmlns="http://www.w3.org/2000/svg">
<path fill-rule="evenodd" clip-rule="evenodd" d="M22.5 12.5C22.5 18.0228 18.0228 22.5 12.5 22.5C6.97715 22.5 2.5 18.0228 2.5 12.5C2.5 6.97715 6.97715 2.5 12.5 2.5C18.0228 2.5 22.5 6.97715 22.5 12.5ZM12.5 8.25C11.8096 8.25 11.25 8.80964 11.25 9.5C11.25 9.91421 10.9142 10.25 10.5 10.25C10.0858 10.25 9.75 9.91421 9.75 9.5C9.75 7.98122 10.9812 6.75 12.5 6.75C14.0188 6.75 15.25 7.98122 15.25 9.5C15.25 10.0463 15.0899 10.5576 14.8138 10.9866C14.6409 11.2554 14.4387 11.5119 14.2523 11.7436L14.1518 11.8683C13.9971 12.0597 13.8551 12.2354 13.7239 12.4158C13.4003 12.8605 13.25 13.1947 13.25 13.5V14C13.25 14.4142 12.9142 14.75 12.5 14.75C12.0858 14.75 11.75 14.4142 11.75 14V13.5C11.75 12.7007 12.1424 12.0398 12.511 11.5333C12.6667 11.3192 12.8373 11.1081 12.9925 10.9162L13.0836 10.8033C13.2688 10.5731 13.4265 10.3706 13.5524 10.1749C13.6774 9.98068 13.75 9.74996 13.75 9.5C13.75 8.80964 13.1904 8.25 12.5 8.25ZM13.25 16.5C13.25 16.0858 12.9142 15.75 12.5 15.75C12.0858 15.75 11.75 16.0858 11.75 16.5V17.5C11.75 17.9142 12.0858 18.25 12.5 18.25C12.9142 18.25 13.25 17.9142 13.25 17.5V16.5Z" fill="currentColor"/>
</svg>
