<svg viewBox="0 0 24 24" xmlns="http://www.w3.org/2000/svg">
<path d="M2.3999 9.24381C2.3999 8.84979 2.60045 8.48014 2.93811 8.25179L11.2581 2.62527C11.7022 2.32494 12.2976 2.32494 12.7417 2.62527L21.0617 8.25179C21.3994 8.48014 21.5999 8.84979 21.5999 9.24381V19.7741C21.5999 20.7825 20.7403 21.6 19.6799 21.6H4.3199C3.25952 21.6 2.3999 20.7825 2.3999 19.7741V9.24381Z" fill="currentColor"/>
<path d="M7.1999 17.4H16.7999M11.2581 2.62527L2.93811 8.25179C2.60045 8.48014 2.3999 8.84979 2.3999 9.24381V19.7741C2.3999 20.7825 3.25952 21.6 4.3199 21.6H19.6799C20.7403 21.6 21.5999 20.7825 21.5999 19.7741V9.24381C21.5999 8.84979 21.3994 8.48014 21.0617 8.25179L12.7417 2.62527C12.2976 2.32494 11.7022 2.32494 11.2581 2.62527Z" stroke="currentColor" stroke-width="1.5" stroke-linecap="round" stroke-linejoin="round"/>
<path d="M7.2002 17.3999H16.8002" stroke="white" stroke-width="1.5" stroke-linecap="round" stroke-linejoin="round"/>
</svg>
