<svg  viewBox="0 0 24 24"  xmlns="http://www.w3.org/2000/svg">
<path d="M2.40039 9.24381C2.40039 8.84979 2.60094 8.48014 2.9386 8.25179L11.2586 2.62527C11.7027 2.32494 12.2981 2.32494 12.7422 2.62527L21.0622 8.25179C21.3998 8.48014 21.6004 8.84979 21.6004 9.24381V19.7741C21.6004 20.7825 20.7408 21.6 19.6804 21.6H4.32039C3.26 21.6 2.40039 20.7825 2.40039 19.7741V9.24381Z" />
<path d="M7.20039 17.4H16.8004M11.2586 2.62527L2.9386 8.25179C2.60094 8.48014 2.40039 8.84979 2.40039 9.24381V19.7741C2.40039 20.7825 3.26 21.6 4.32039 21.6H19.6804C20.7408 21.6 21.6004 20.7825 21.6004 19.7741V9.24381C21.6004 8.84979 21.3998 8.48014 21.0622 8.25179L12.7422 2.62527C12.2981 2.32494 11.7027 2.32494 11.2586 2.62527Z"  stroke-width="1.5" stroke-linecap="round" stroke-linejoin="round"/>
<path d="M7.2002 17.3999H16.8002" stroke="white" stroke-width="1.5" stroke-linecap="round" stroke-linejoin="round"/>
</svg>
