<svg viewBox="0 0 25 25"  xmlns="http://www.w3.org/2000/svg">
<path fill-rule="evenodd" clip-rule="evenodd" d="M7.5 2.5C5.29086 2.5 3.5 4.29086 3.5 6.5V18.5C3.5 20.7091 5.29086 22.5 7.5 22.5H17.5C19.7091 22.5 21.5 20.7091 21.5 18.5V8.15685C21.5 7.09599 21.0786 6.07857 20.3284 5.32843L18.6716 3.67157C17.9214 2.92143 16.904 2.5 15.8431 2.5H7.5ZM8.5 6.75C8.08579 6.75 7.75 7.08579 7.75 7.5C7.75 7.91421 8.08579 8.25 8.5 8.25H16.5C16.9142 8.25 17.25 7.91421 17.25 7.5C17.25 7.08579 16.9142 6.75 16.5 6.75H8.5ZM7.75 12.5C7.75 12.0858 8.08579 11.75 8.5 11.75H16.5C16.9142 11.75 17.25 12.0858 17.25 12.5C17.25 12.9142 16.9142 13.25 16.5 13.25H8.5C8.08579 13.25 7.75 12.9142 7.75 12.5ZM8.5 16.75C8.08579 16.75 7.75 17.0858 7.75 17.5C7.75 17.9142 8.08579 18.25 8.5 18.25H12.5C12.9142 18.25 13.25 17.9142 13.25 17.5C13.25 17.0858 12.9142 16.75 12.5 16.75H8.5Z" fill="currentColor"/>
</svg>
