<svg  viewBox="0 0 24 24" xmlns="http://www.w3.org/2000/svg">
<path d="M7.1709 16C8.73798 17.7664 10.5906 19 12.001 19C13.4113 18.9999 15.264 17.7663 16.8311 16H18.167C18.9743 16 19.7031 16.4853 20.0137 17.2305L20.8467 19.2305C21.3956 20.5478 20.428 21.9999 19.001 22H5.00098C3.57382 22 2.60539 20.5478 3.1543 19.2305L3.98828 17.2305C4.29889 16.4854 5.02677 16.0001 5.83398 16H7.1709ZM12.001 3C15.3145 3.00017 18.001 5.78632 18.001 9.22266C18.0007 12.6589 14.2509 16.9996 12.001 17C9.75107 17 6.00129 12.659 6.00098 9.22266C6.00098 5.78622 8.68727 3 12.001 3ZM12.001 7C10.8964 7 10.001 7.89543 10.001 9C10.001 10.1046 10.8964 11 12.001 11C13.1054 10.9998 14.001 10.1045 14.001 9C14.001 7.89553 13.1054 7.00017 12.001 7Z"/>
</svg>
