<svg  viewBox="0 0 25 25" xmlns="http://www.w3.org/2000/svg">
<path fill-rule="evenodd" clip-rule="evenodd" d="M22.5 12.5C22.5 15.5134 21.1672 18.2154 19.0588 20.0488C17.3031 21.5756 15.0095 22.5 12.5 22.5C9.99052 22.5 7.69694 21.5756 5.94117 20.0488C3.83285 18.2154 2.5 15.5134 2.5 12.5C2.5 6.97715 6.97715 2.5 12.5 2.5C18.0228 2.5 22.5 6.97715 22.5 12.5ZM15.5 9.5C15.5 7.84315 14.1569 6.5 12.5 6.5C10.8431 6.5 9.5 7.84315 9.5 9.5C9.5 11.1569 10.8431 12.5 12.5 12.5C14.1569 12.5 15.5 11.1569 15.5 9.5ZM12.5 14.5C14.2127 14.5 15.339 15.4166 16.1332 16.4355C16.7257 17.1957 16.5218 18.3107 15.6622 18.7467C14.7124 19.2285 13.6379 19.5 12.5 19.5C11.3621 19.5 10.2876 19.2285 9.33779 18.7467C8.47822 18.3107 8.27427 17.1956 8.8668 16.4355C9.66096 15.4166 10.7873 14.5 12.5 14.5Z" fill="currentColor"/>
</svg>
