<svg viewBox="0 0 22 22" fill="none" xmlns="http://www.w3.org/2000/svg">
  <path d="M7.3335 13.9791C7.71317 13.9791 8.02096 14.2869 8.021 14.6666V19.2496C8.021 19.6293 7.71319 19.9371 7.3335 19.9371C6.9538 19.9371 6.646 19.6293 6.646 19.2496V14.6666C6.64603 14.2869 6.95382 13.9791 7.3335 13.9791ZM14.6665 10.0836C16.1853 10.0836 17.4165 11.3148 17.4165 12.8336V14.6666C17.4165 15.948 16.5401 17.0244 15.354 17.3297V19.2496C15.354 19.6293 15.0462 19.9371 14.6665 19.9371C14.287 19.9369 13.979 19.6292 13.979 19.2496V17.3297C12.7931 17.0243 11.9165 15.9478 11.9165 14.6666V12.8336C11.9165 11.3149 13.1479 10.0838 14.6665 10.0836ZM7.3335 2.0621C7.71306 2.0621 8.02079 2.37009 8.021 2.7496V4.66953C9.20709 4.9748 10.0835 6.0522 10.0835 7.33359V9.1666C10.0835 10.6854 8.85228 11.9166 7.3335 11.9166C5.81471 11.9166 4.5835 10.6854 4.5835 9.1666V7.33359C4.5835 6.0522 5.4599 4.9748 6.646 4.66953V2.7496C6.64621 2.37009 6.95393 2.0621 7.3335 2.0621ZM14.6665 2.0621C15.0461 2.0621 15.3538 2.37009 15.354 2.7496V7.33359C15.3539 7.71316 15.0461 8.02109 14.6665 8.02109C14.287 8.02091 13.9791 7.71306 13.979 7.33359V2.7496C13.9792 2.3702 14.2871 2.06228 14.6665 2.0621Z" fill="url(#paint0_linear_9882_4599)"/>
  <defs>
  <linearGradient id="paint0_linear_9882_4599" x1="5.51754" y1="-0.810664" x2="17.2285" y2="0.617078" gradientUnits="userSpaceOnUse">
  <stop stop-color="#A7BEFD"/>
  <stop offset="0.956731" stop-color="#72A5F6"/>
  </linearGradient>
  </defs>
</svg>
