<svg width="284" height="48" viewBox="0 0 284 48" fill="none" xmlns="http://www.w3.org/2000/svg">
<g clip-path="url(#clip0_760_7365)">
<path d="M44.3781 40.6146H40.0145C40.0145 34.8983 38.7163 26.351 37.4454 22.631C37.2163 23.3837 36.9599 24.3219 36.7254 25.1946C35.2854 30.4855 33.3163 37.7292 28.969 39.8728C27.349 40.6692 25.5435 40.7019 23.7435 39.9655C19.2272 38.1164 19.0581 30.2128 20.2799 24.0164C21.8399 16.1128 26.3835 6.88916 34.0581 6.88916C36.4363 6.88916 39.6872 7.84371 41.6781 12.4037L37.6799 14.1546C36.7908 12.1201 35.7054 11.2528 34.0581 11.2528C29.3781 11.2528 25.8545 18.3055 24.5617 24.8619C23.2799 31.3746 24.4254 35.531 25.4017 35.9346C26.2308 36.2728 26.7163 36.131 27.0435 35.9673C29.6235 34.6964 31.5054 27.7746 32.5199 24.0601C33.1472 21.7528 33.5999 20.0837 34.1781 19.0855C35.629 16.5873 37.4508 16.7619 38.1708 16.9583C39.8126 17.4001 41.5363 18.9546 43.0472 27.2673C43.8435 31.6473 44.3781 37.0201 44.3781 40.631V40.6146Z" fill="#161616"/>
<path d="M49.1343 29.6559L42.4961 7.30859H47.9888L51.9979 22.5431L56.007 7.30859H61.0197L54.3815 29.6559V40.734H49.1288V29.6559H49.1343Z" fill="#161616"/>
<path d="M121.369 7.4624H126.622V36.1151H135.267V40.8933H121.369V7.4624Z" fill="#161616"/>
<path d="M105.981 7.4624H111.234V36.1151H119.88V40.8933H105.981V7.4624Z" fill="#161616"/>
<path d="M95.4168 21.5515H102.628V26.3242H95.4168V36.1151H104.488V40.8933H90.1641V7.4624L104.488 7.4624V12.2406H95.4168V21.5515Z" fill="#161616"/>
<path d="M77.3504 40.8933H72.0977V7.4624H77.3504V21.7915H83.3177V7.4624H88.6686V40.8933H83.3177V26.5642H77.3504V40.8933Z" fill="#161616"/>
<path d="M143.536 40.4783C142.02 40.4783 140.542 40.0255 139.178 39.131L139.015 39.0219L138.873 38.8855C134.695 34.8819 135.998 27.9601 137.766 22.8274C137.16 22.6692 136.555 22.4837 135.949 22.2655C134.335 21.6819 133.315 20.4928 133.14 18.9983C132.726 15.4146 137.313 12.0219 139.304 10.7292C143.706 7.871 149.913 5.711 154.146 8.20919C156.311 9.491 157.735 11.7274 158.307 14.6728C158.76 14.471 159.218 14.2637 159.671 14.0619L163.113 12.5183L164.896 16.5001L161.471 18.0383C160.511 18.4692 159.535 18.911 158.542 19.3474C157.926 28.2983 152.487 36.8619 147.535 39.4474C146.215 40.1346 144.867 40.4783 143.547 40.4783H143.536ZM141.753 35.5965C142.936 36.3055 144.131 36.3001 145.506 35.5801C149.182 33.6601 152.804 27.2292 153.895 21.2292C150.126 22.6037 146.209 23.5801 142.195 23.4546C139.522 30.8019 140.356 34.1128 141.753 35.5965ZM140.809 15.5401L144.786 17.3346L144 19.0746C147.376 18.8837 150.78 17.8201 154.156 16.4619C153.987 14.7928 153.442 12.8728 151.92 11.9728C150.306 11.0183 147.191 11.4765 143.804 13.1728C140.269 14.9401 138.098 17.1655 137.586 18.2237C138.18 18.431 138.775 18.6001 139.375 18.731C139.576 18.2783 139.756 17.8746 139.909 17.531L140.804 15.5401H140.809Z" fill="#161616"/>
<path d="M269.46 7.4624H274.713V36.1151H283.358V40.8933H269.46V7.4624Z" fill="#161616"/>
<path d="M258.867 21.5515H266.078V26.3242H258.867V36.1151H267.938V40.8933H253.609V7.4624L267.938 7.4624V12.2406H258.867V21.5515Z" fill="#161616"/>
<path d="M243.289 34.7346L247.298 7.46729H252.12L246.96 40.8982H239.127L233.967 7.46729H239.269L243.278 34.7346H243.289Z" fill="#161616"/>
<path d="M201.9 40.8933C201.61 40.0315 201.42 39.5079 201.42 36.786V31.5333C201.42 28.4297 200.367 27.2842 197.983 27.2842H196.167V40.8933H190.914V7.4624L198.84 7.4624C204.283 7.4624 206.623 9.99331 206.623 15.1533V17.7824C206.623 21.2188 205.527 23.466 203.187 24.5624C205.816 25.6588 206.672 28.1897 206.672 31.6751V36.8351C206.672 38.4606 206.721 39.6551 207.245 40.8933H201.894H201.9ZM196.167 12.2406V22.506H198.218C200.176 22.506 201.37 21.6442 201.37 18.9715V15.6769C201.37 13.2879 200.558 12.2406 198.698 12.2406H196.167Z" fill="#161616"/>
<path d="M173.007 7.4624L189.245 7.4624V12.2406H183.752V40.8933H178.5V12.2406H173.007V7.4624Z" fill="#161616"/>
<path d="M233.754 40.9857H229.391C229.391 35.2912 228.223 27.0984 227.018 23.2584C226.816 23.9621 226.603 24.7803 226.402 25.5493C225.005 30.8839 223.096 38.193 218.831 40.2821C217.26 41.0512 215.514 41.0675 213.78 40.3257C209.291 38.4057 209.225 30.2512 210.534 23.8475C213.038 11.6184 219 7.26025 223.745 7.26025C226.063 7.26025 229.232 8.22025 231.158 12.8021L227.132 14.493C226.287 12.4803 225.272 11.6239 223.745 11.6239C219.447 11.6239 216.098 18.4148 214.805 24.7257C213.431 31.4512 214.538 35.9075 215.487 36.3166C216.202 36.6221 216.605 36.513 216.905 36.3657C219.376 35.1548 221.198 28.1893 222.174 24.4475C222.84 21.9112 223.238 20.4275 223.767 19.4839C225.163 16.9748 226.974 17.133 227.683 17.313C229.303 17.733 231 19.2712 232.462 27.6166C233.231 32.0021 233.743 37.3748 233.743 40.9912L233.754 40.9857Z" fill="#161616"/>
<path d="M0.510721 14.4055C0.510721 9.05455 3.13981 6 8.24527 6C13.3507 6 15.9798 9.05455 15.9798 14.4055V15.4582L11.0107 15.4582V14.0727C11.0107 11.6836 10.0562 10.7782 8.38163 10.7782C6.70709 10.7782 5.75254 11.6836 5.75254 14.0727C5.75254 20.9509 16.018 22.2382 16.018 31.7891C16.018 37.14 13.3453 40.1945 8.18527 40.1945C3.02527 40.1945 0.352539 37.14 0.352539 31.7891L0.352539 29.7382H5.33799V32.1273C5.33799 34.5164 6.39072 35.3727 8.05981 35.3727C9.7289 35.3727 10.7816 34.5109 10.7816 32.1273C10.7816 25.2491 0.516175 23.9618 0.516175 14.4109L0.510721 14.4055Z" fill="#161616"/>
</g>
<defs>
<clipPath id="clip0_760_7365">
<rect width="283.636" height="48" fill="white"/>
</clipPath>
</defs>
</svg>
