<svg width="203" height="84" viewBox="0 0 203 84" fill="none" xmlns="http://www.w3.org/2000/svg">
<path d="M56.6871 52.5256V52.0748L61.3084 41.254L63.3373 36.9145L73.0873 12.9059H78.8921V13.3568L62.4356 52.5256H56.6871ZM61.3084 41.254L49.9805 13.3568V12.9059H55.7853L65.5916 37.8162V41.254H61.3084Z" fill="white"/>
<path d="M35.0298 42.043C33.1136 42.043 31.3853 41.6673 29.8448 40.9158C28.342 40.1644 27.1584 39.1312 26.2943 37.8162C25.4301 36.4636 24.998 34.9231 24.998 33.1948C24.998 30.6023 25.8998 28.5359 27.7032 26.9954C29.5067 25.4174 32.0616 24.4969 35.3679 24.2339L46.3014 23.3321V28.1789L36.326 28.968C34.4098 29.1182 33.0009 29.5315 32.0992 30.2078C31.1974 30.8841 30.7466 31.8046 30.7466 32.9694C30.7466 34.0965 31.235 35.0358 32.2119 35.7873C33.1887 36.5011 34.4286 36.8581 35.9315 36.8581C37.5095 36.8581 38.9373 36.4824 40.2147 35.7309C41.5297 34.9795 42.563 33.9838 43.3144 32.7439C44.0658 31.4665 44.4416 30.0951 44.4416 28.6298V24.0084C44.4416 22.0171 43.8028 20.3827 42.5254 19.1053C41.2855 17.8278 39.6323 17.1891 37.5659 17.1891C35.8376 17.1891 34.391 17.6024 33.2263 18.429C32.0992 19.2556 31.3477 20.3452 30.972 21.6978H30.3521L25.5053 20.3452C26.2567 17.8278 27.6844 15.8177 29.7885 14.3149C31.8925 12.812 34.485 12.0605 37.5659 12.0605C41.5109 12.0605 44.5731 13.2253 46.7522 15.5547C48.9314 17.8466 50.021 21.0778 50.021 25.2483V41.254H44.8361V33.0257L46.865 33.6457C46.4141 35.1861 45.6063 36.5951 44.4416 37.8725C43.3144 39.15 41.943 40.1644 40.3274 40.9158C38.7118 41.6673 36.9459 42.043 35.0298 42.043Z" fill="white"/>
<path d="M11.8915 42.043C8.84821 42.043 6.27453 41.3292 4.17049 39.9014C2.06646 38.4361 0.676296 36.426 0 33.8711L5.12858 32.5749L5.80488 32.744C6.1806 34.059 6.95082 35.0922 8.11555 35.8437C9.31786 36.5575 10.708 36.9145 12.286 36.9145C13.8265 36.9145 15.1415 36.5763 16.2311 35.9C17.3207 35.2237 17.8655 34.322 17.8655 33.1948C17.8655 32.2555 17.5461 31.5229 16.9074 30.9969C16.2687 30.4333 15.3106 30.0012 14.0331 29.7006L8.73549 28.5171C6.06788 27.916 4.07656 26.9391 2.76154 25.5865C1.44652 24.1963 0.789012 22.5244 0.789012 20.5706C0.789012 18.8799 1.25866 17.4146 2.19796 16.1747C3.13726 14.8973 4.41471 13.9016 6.03031 13.1877C7.68348 12.4739 9.54329 12.1169 11.6098 12.1169C14.5404 12.1169 17.0201 12.8496 19.049 14.3149C21.0779 15.7426 22.4117 17.7715 23.0504 20.4016L18.0909 21.4724L17.471 21.3597C17.1328 20.0822 16.3814 19.0866 15.2167 18.3727C14.0895 17.6212 12.8121 17.2455 11.3843 17.2455C9.99415 17.2455 8.81064 17.5461 7.83376 18.1473C6.89446 18.7108 6.42481 19.4623 6.42481 20.4016C6.42481 21.153 6.72539 21.8105 7.32654 22.3741C7.92769 22.9001 8.84821 23.2946 10.0881 23.5576L15.4421 24.7975C18.1473 25.3986 20.1574 26.3567 21.4724 27.6718C22.825 28.9868 23.5013 30.7151 23.5013 32.8567C23.5013 34.7353 22.9941 36.3697 21.9796 37.7598C21.0028 39.1124 19.6314 40.1644 17.8655 40.9159C16.1372 41.6673 14.1459 42.043 11.8915 42.043Z" fill="white"/>
<path d="M197.29 82.6398V42.062L202.757 41.3857L202.926 41.8366V82.6398H197.29Z" fill="white"/>
<path d="M180.476 83.4289C177.658 83.4289 175.16 82.8089 172.98 81.569C170.839 80.2916 169.167 78.5257 167.965 76.2714C166.762 74.0171 166.161 71.4058 166.161 68.4376C166.161 65.4694 166.743 62.877 167.908 60.6602C169.111 58.4059 170.764 56.6588 172.868 55.4189C175.009 54.1415 177.47 53.5027 180.251 53.5027C182.993 53.5027 185.379 54.1415 187.408 55.4189C189.475 56.6964 191.071 58.4998 192.199 60.8293C193.363 63.1212 193.946 65.8076 193.946 68.8885V69.7339L193.1 70.5792H169.035V65.6197H191.24L188.366 66.7469C188.291 65.0561 187.878 63.6096 187.126 62.4073C186.412 61.205 185.454 60.2845 184.252 59.6458C183.087 58.9695 181.772 58.6313 180.307 58.6313C178.729 58.6313 177.282 59.007 175.967 59.7585C174.652 60.5099 173.619 61.5619 172.868 62.9145C172.154 64.2296 171.797 65.77 171.797 67.5359V69.2266C171.797 70.9549 172.173 72.5142 172.924 73.9043C173.676 75.2569 174.709 76.3277 176.024 77.1168C177.339 77.9058 178.823 78.3003 180.476 78.3003C182.054 78.3003 183.444 77.9058 184.647 77.1168C185.886 76.2902 186.863 75.2006 187.577 73.848H188.253L192.818 75.8205C191.729 78.1876 190.113 80.0474 187.972 81.4C185.83 82.7526 183.332 83.4289 180.476 83.4289Z" fill="white"/>
<path d="M151.395 82.6398L151.79 79.202L161.709 54.2917H167.514V54.7426L156.073 82.6398H151.395ZM150.55 82.6398L139.109 54.7426V54.2917H144.914L154.833 79.202L155.228 82.6398H150.55Z" fill="white"/>
<path d="M124.159 83.4289C122.243 83.4289 120.514 83.0532 118.974 82.3017C117.471 81.5503 116.287 80.517 115.423 79.202C114.559 77.8494 114.127 76.309 114.127 74.5807C114.127 71.9882 115.029 69.9217 116.832 68.3813C118.636 66.8033 121.19 65.8827 124.497 65.6197L135.43 64.718V69.5648L125.455 70.3538C123.539 70.5041 122.13 70.9174 121.228 71.5937C120.326 72.27 119.875 73.1905 119.875 74.3552C119.875 75.4824 120.364 76.4217 121.341 77.1731C122.318 77.887 123.558 78.2439 125.06 78.2439C126.638 78.2439 128.066 77.8682 129.344 77.1168C130.659 76.3653 131.692 75.3697 132.443 74.1298C133.195 72.8524 133.57 71.481 133.57 70.0157V65.3943C133.57 63.403 132.932 61.7686 131.654 60.4912C130.414 59.2137 128.761 58.575 126.695 58.575C124.966 58.575 123.52 58.9883 122.355 59.8149C121.228 60.6414 120.477 61.731 120.101 63.0836H119.481L114.634 61.731C115.386 59.2137 116.813 57.2036 118.917 55.7007C121.021 54.1979 123.614 53.4464 126.695 53.4464C130.64 53.4464 133.702 54.6111 135.881 56.9406C138.06 59.2325 139.15 62.4637 139.15 66.6342V82.6399H133.965V74.4116L135.994 75.0315C135.543 76.572 134.735 77.9809 133.57 79.2584C132.443 80.5358 131.072 81.5503 129.456 82.3017C127.841 83.0532 126.075 83.4289 124.159 83.4289Z" fill="white"/>
<path d="M98.3701 82.6398V54.2917H103.724V61.9001L102.202 61.3929C102.954 59.2137 104.231 57.4854 106.035 56.2079C107.876 54.9305 109.98 54.2917 112.347 54.2917H115.108V59.4767H111.445C109.942 59.4767 108.627 59.8336 107.5 60.5475C106.411 61.2238 105.546 62.1819 104.908 63.4217C104.306 64.6616 104.006 66.1269 104.006 67.8177V82.6398H98.3701Z" fill="white"/>
<path d="M90.1656 82.6398C87.5731 82.6398 85.4691 81.8133 83.8535 80.1601C82.2754 78.5069 81.4864 76.2714 81.4864 73.4535V46.7961H87.1222V72.9463C87.1222 74.4867 87.4792 75.6327 88.193 76.3841C88.9445 77.098 90.0904 77.4549 91.6309 77.4549H94.7869L95.0687 78.0748V82.6398H90.1656ZM76.6396 59.4767V54.2918H95.0687V59.4767H76.6396Z" fill="white"/>
<path d="M176.224 9.04709C181.825 7.93526 186.44 9.09545 189.508 12.1882C192.513 15.2168 193.507 19.5757 193.013 23.7787C192.02 32.2166 184.977 41.1755 172.832 42.3415L172.686 42.3556L172.539 42.3546C166.923 42.3085 162.986 39.8713 160.714 36.282C159.165 33.8348 158.486 31.0076 158.423 28.3401C157.204 28.4658 155.919 28.5677 154.567 28.6407L150.609 28.9177L150.215 23.0438L154.263 22.7605C156.23 22.6542 158.003 22.4876 159.597 22.2764C161.604 17.0886 164.411 13.8363 167.464 12.2734C170.858 10.5365 174.991 10.8891 177.045 13.9336C177.1 14.014 177.151 14.0958 177.201 14.1782L176.224 9.04709ZM185.457 16.3789C184.121 15.0322 181.686 14.009 177.521 14.7898C178.138 16.1675 178.18 17.7468 177.638 19.2613C177.004 21.0278 175.648 22.5538 173.826 23.7981C171.62 25.3055 168.468 26.5836 164.193 27.4687C164.112 29.4284 164.541 31.4814 165.557 33.086C166.687 34.8714 168.718 36.3952 172.443 36.4634C181.713 35.5068 186.613 28.8091 187.287 23.0762C187.628 20.1785 186.878 17.8109 185.457 16.3789ZM172.218 17.2467C171.989 17.1238 171.325 16.8832 170.048 17.5368C169.136 18.0038 167.984 18.9543 166.842 20.6873C168.511 20.1209 169.744 19.5029 170.62 18.9043C171.771 18.1182 172.127 17.4924 172.218 17.2467Z" fill="url(#paint0_linear_4722_19068)"/>
<path d="M118.474 12.7269C121.878 11.0162 126.026 11.3634 128.087 14.362C129.139 15.8917 129.343 17.7978 128.682 19.6094C128.046 21.3493 126.685 22.8523 124.857 24.0778C122.643 25.5626 119.481 26.8214 115.191 27.6931C115.11 29.6233 115.541 31.6453 116.56 33.2257C117.694 34.9844 119.732 36.4853 123.47 36.5522C131.566 35.7303 135.498 30.5731 136.97 25.1858L142.551 26.7175C140.579 33.9321 134.961 41.2956 123.86 42.3417L123.714 42.3556L123.566 42.3546C117.931 42.3093 113.98 39.9087 111.7 36.3736C110.146 33.9632 109.465 31.1787 109.402 28.5514C108.178 28.6752 106.889 28.7755 105.532 28.8474L101.561 29.1203L101.165 23.3349L105.204 23.0574L105.227 23.0564C107.201 22.9517 108.98 22.7871 110.58 22.5791C112.594 17.4695 115.41 14.2662 118.474 12.7269ZM123.244 17.6252C123.013 17.5041 122.347 17.2672 121.066 17.9109C120.151 18.3709 118.995 19.3071 117.85 21.0139C119.524 20.456 120.761 19.8473 121.64 19.2578C122.795 18.4835 123.152 17.8672 123.244 17.6252Z" fill="url(#paint1_linear_4722_19068)"/>
<path d="M81.2383 41.2541V0.676297L86.705 0L86.8741 0.450865V20.5143L85.0706 20.0071C85.6342 18.3915 86.4796 17.0013 87.6067 15.8366C88.7339 14.6343 90.0489 13.7138 91.5518 13.0751C93.0922 12.4363 94.7266 12.117 96.4549 12.117C98.4838 12.117 100.306 12.5491 101.922 13.4132C103.537 14.2774 104.815 15.5736 105.754 17.3019C106.693 18.9927 107.163 21.1155 107.163 23.6704V41.2541H101.527V25.2484C101.527 23.3322 101.245 21.8106 100.682 20.6834C100.118 19.5187 99.348 18.6733 98.3711 18.1473C97.4318 17.6213 96.3234 17.3583 95.046 17.3583C93.7685 17.3583 92.4911 17.6776 91.2136 18.3164C89.9738 18.9551 88.9405 19.9507 88.114 21.3033C87.2874 22.6559 86.8741 24.4218 86.8741 26.601V41.2541H81.2383Z" fill="url(#paint2_linear_4722_19068)"/>
<path d="M147.251 41.2541V0.676297L152.718 0L152.887 0.450865V41.2541H147.251Z" fill="url(#paint3_linear_4722_19068)"/>
<path d="M136.42 41.2541V0.676297L141.887 0L142.056 0.450865V41.2541H136.42Z" fill="url(#paint4_linear_4722_19068)"/>
<defs>
<linearGradient id="paint0_linear_4722_19068" x1="150.215" y1="25.4948" x2="193.133" y2="25.4948" gradientUnits="userSpaceOnUse">
<stop stop-color="#E9FF5E"/>
<stop offset="0.235577" stop-color="#EAF890"/>
<stop offset="0.485577" stop-color="#E7FF4F"/>
<stop offset="0.788462" stop-color="#EDFA98"/>
<stop offset="1" stop-color="#E9FF5E"/>
</linearGradient>
<linearGradient id="paint1_linear_4722_19068" x1="101.165" y1="27.0276" x2="142.551" y2="27.0276" gradientUnits="userSpaceOnUse">
<stop stop-color="#E9FF5E"/>
<stop offset="0.235577" stop-color="#EAF890"/>
<stop offset="0.485577" stop-color="#E7FF4F"/>
<stop offset="0.788462" stop-color="#EDFA98"/>
<stop offset="1" stop-color="#E9FF5E"/>
</linearGradient>
<linearGradient id="paint2_linear_4722_19068" x1="81.2383" y1="20.627" x2="107.163" y2="20.627" gradientUnits="userSpaceOnUse">
<stop stop-color="#E9FF5E"/>
<stop offset="0.235577" stop-color="#EAF890"/>
<stop offset="0.485577" stop-color="#E7FF4F"/>
<stop offset="0.788462" stop-color="#EDFA98"/>
<stop offset="1" stop-color="#E9FF5E"/>
</linearGradient>
<linearGradient id="paint3_linear_4722_19068" x1="147.251" y1="20.627" x2="152.887" y2="20.627" gradientUnits="userSpaceOnUse">
<stop stop-color="#E9FF5E"/>
<stop offset="0.235577" stop-color="#EAF890"/>
<stop offset="0.485577" stop-color="#E7FF4F"/>
<stop offset="0.788462" stop-color="#EDFA98"/>
<stop offset="1" stop-color="#E9FF5E"/>
</linearGradient>
<linearGradient id="paint4_linear_4722_19068" x1="136.42" y1="20.627" x2="142.056" y2="20.627" gradientUnits="userSpaceOnUse">
<stop stop-color="#E9FF5E"/>
<stop offset="0.235577" stop-color="#EAF890"/>
<stop offset="0.485577" stop-color="#E7FF4F"/>
<stop offset="0.788462" stop-color="#EDFA98"/>
<stop offset="1" stop-color="#E9FF5E"/>
</linearGradient>
</defs>
</svg>
