<svg width="335" height="347" viewBox="0 0 335 347" fill="none" xmlns="http://www.w3.org/2000/svg">
<path d="M212.764 172.112C212.101 171.217 211.438 170.321 210.416 168.633C209.394 166.944 208.035 164.49 206.82 161.982C205.605 159.474 204.577 156.986 204.014 155.572C203.351 153.906 202.985 152.79 202.466 151.451C202.044 150.363 201.644 148.673 201.258 147.31C200.631 145.099 200.436 143.943 200.302 143.32C200.134 142.539 200.034 141.796 200.016 141.326C200.005 141.036 200.635 141.456 201.854 142.009C202.139 142.138 202.276 142.194 202.394 142.195C202.845 142.199 203.114 141.428 203.533 140.824C204.095 140.015 204.521 139.183 204.84 138.796C204.903 138.72 205.023 138.745 205.124 138.778C205.671 138.958 206.063 139.647 206.498 140.133C206.839 140.515 207.102 140.853 207.336 141.706C207.582 142.601 207.805 143.467 208.006 144.586C208.218 145.764 208.342 147.183 208.509 148.222C208.728 149.588 209.046 151.473 209.379 153.077C209.553 153.911 209.781 154.922 209.983 155.944C210.235 157.22 210.519 158.14 210.803 159.46C210.965 160.209 211.122 161.286 211.173 162.009C211.238 162.935 211.424 163.867 211.541 165.237C211.777 167.981 211.659 168.989 211.742 169.782C211.792 170.202 211.893 170.503 211.96 170.704C211.993 170.805 212.027 170.904 212.061 171.007" stroke="black" stroke-width="2" stroke-linecap="round"/>
<path d="M208.041 141.458C207.908 138.473 207.775 135.488 207.674 133.321C207.572 131.153 207.506 129.892 207.455 129.144C207.35 127.592 207.138 125.524 206.952 124.575C206.873 124.172 206.535 123.705 206.049 123.118C205.683 122.676 205.062 122.431 204.308 122.146C203.356 121.786 201.554 121.659 200.555 121.742C199.229 121.853 197.49 122.395 197.071 122.496C196.559 122.62 196.183 122.897 195.681 123.332C195.198 123.75 194.609 124.236 193.428 125.301C192.525 126.116 190.953 127.428 190.034 128.211C188.461 129.55 187.51 130.264 186.936 130.62C186.392 130.957 185.532 131.573 185.077 132.009C184.391 132.668 183.353 133.149 182.583 133.6C182.082 133.818 181.676 133.987 181.425 134.087C181.307 134.122 181.208 134.122 181.005 134.222" stroke="black" stroke-width="2" stroke-linecap="round"/>
<path d="M199.369 141.647C198.412 140.85 196.37 138.914 195.67 138.43C195.057 138.005 194.543 137.893 194.249 137.892C193.578 137.89 193.631 139.069 193.416 139.713C193.185 140.406 192.987 141.267 192.638 141.966C192.322 142.601 191.809 143.147 191.032 144.137C189.835 145.661 188.912 146.044 187.146 147.301C185.938 148.161 184.783 148.458 181.707 149.395C180.084 149.889 179.099 150.015 177.863 150.149C176.793 150.265 174.973 150.55 172.53 150.686C171.151 150.762 169.981 150.926 168.797 151.141C167.719 151.337 166.015 151.995 163.117 153.443C161.668 154.167 160.965 154.785 160.266 155.298C159.579 155.801 158.551 156.555 157.585 157.388C156.309 158.488 154.316 160.469 153.534 161.411C153.385 161.59 153.292 161.76 153.184 161.63C152.125 160.349 153.073 157.856 153.236 156.804C153.294 156.425 153.876 155.442 154.44 154.314C154.776 153.64 154.258 156.871 153.668 158.805C153.062 160.792 152.755 161.757 152.433 163.927C152.16 165.766 152.111 167.173 151.896 168.41C151.642 169.873 151.146 171.039 150.53 172.139C150.124 172.864 149.591 173.508 149.055 174.311C148.047 175.824 146.968 176.99 146.104 178.04C145.352 178.955 145.03 179.625 144.79 179.892C144.674 180.021 144.496 180.054 144.361 180.002C143.736 179.76 143.637 178.825 143.367 178.127C142.976 177.115 143.099 176.089 143.018 174.964C142.928 173.724 142.777 172.658 142.696 171.076C142.508 169.814 142.401 168.419 142.267 166.844C142.24 165.806 142.24 163.894 142.24 161.924" stroke="black" stroke-width="2" stroke-linecap="round"/>
<path d="M142.562 159.832C140.119 166.523 138.701 170.395 138.407 171.145C137.936 172.343 137.467 173.614 136.772 175.328C136.147 176.867 135.005 178.278 134.516 179.168C134.071 179.978 133.926 180.91 133.685 181.902C133.533 182.526 133.336 183.004 133.176 183.139C132.521 183.692 132.317 181.403 132.236 180.274C132.154 179.134 131.94 176.907 131.78 175.071C131.694 174.085 131.351 172.925 131.244 171.853C131.107 170.49 130.762 169.227 130.359 168.231C130.064 166.914 129.636 165.848 129.099 164.316C128.991 164.018 128.938 163.858 128.883 163.694" stroke="black" stroke-width="2" stroke-linecap="round"/>
<path d="M144.493 180.914C143.431 188.242 142.671 192.602 142.323 193.567C142.013 194.425 141.812 195.284 141.597 196.065C141.49 196.466 141.382 196.844 141.222 197.138C141.115 197.274 140.956 197.38 140.792 197.489" stroke="black" stroke-width="2" stroke-linecap="round"/>
<path d="M140.792 198.133C140.792 198.239 142.81 200.471 146.027 204.009C148.607 206.848 149.961 208.802 150.924 209.848C153.344 212.474 153.717 213.257 155.936 215.504C157.025 216.606 157.847 217.174 159.56 218.806C160.57 219.768 161.603 220.66 162.246 221.197C164.129 222.771 167.435 224.502 168.214 225.309C169.419 226.559 186.761 239.053 187.351 239.724C187.976 240.435 188.315 241.145 188.933 241.95C189.515 242.707 190.086 243.929 190.543 244.847C190.786 245.492 190.947 245.975 191.054 246.296C191.108 246.457 191.161 246.617 191.215 247.103" stroke="black" stroke-width="2" stroke-linecap="round"/>
<path d="M191.563 247.503C192.519 251.327 193.011 253.881 192.905 254.66C192.799 254.855 192.586 254.642 192.451 254.453C192.315 254.264 192.261 254.105 192.207 253.78" stroke="black" stroke-width="2" stroke-linecap="round"/>
<path d="M191.241 245.894C192.516 247.54 193.79 249.187 195.164 250.884C197.936 254.311 199.555 256.192 199.795 256.566C200.376 257.469 200.894 258.228 201.245 258.927C201.573 259.582 201.808 260.213 202.156 261.125C202.451 261.877 202.72 262.468 202.827 262.789C202.881 262.951 202.934 263.11 202.989 263.596" stroke="black" stroke-width="2" stroke-linecap="round"/>
<path d="M198.805 254.584C198.805 254.637 198.805 254.69 198.911 256.709C199.017 258.728 199.23 262.711 199.287 266.815" stroke="black" stroke-width="2" stroke-linecap="round"/>
<path d="M133.228 182.362C133.228 182.468 133.228 182.574 133.042 185.019C132.856 187.463 132.485 192.243 132.267 194.785C131.997 197.927 131.674 198.773 131.592 199.765C131.405 200.973 131.244 201.884 131.137 202.527C131.083 202.798 131.03 202.958 130.975 203.122" stroke="black" stroke-width="2" stroke-linecap="round"/>
<path d="M131.458 203.122C131.511 203.175 131.564 203.228 132.786 205.698C134.009 208.168 136.399 213.054 137.656 215.677C139.007 218.494 139.5 219.688 140.357 221.455C141.048 222.881 141.381 223.931 141.967 225.504C143.182 228.767 144.224 231.067 144.358 231.549C144.675 232.691 145.51 234.654 146.848 238.218C147.593 240.201 148.246 242.7 148.996 245.167C149.978 248.397 150.338 250.37 150.741 251.477C151.206 252.754 151.838 254.928 152.457 256.463C153.58 259.251 153.879 260.621 154.388 262.309C155.114 264.487 155.327 265.396 155.649 266.306C155.758 266.738 155.758 267.11 155.758 267.493" stroke="black" stroke-width="2" stroke-linecap="round"/>
<path d="M150.126 250.917C150.179 251.077 150.232 251.236 150.206 252.805C150.18 254.374 150.074 257.348 149.966 259.04C149.859 260.731 149.752 261.05 149.482 261.7" stroke="black" stroke-width="2" stroke-linecap="round"/>
<path d="M111.669 189.416C111.669 189.284 112.731 185.831 114.373 180.803C114.891 179.215 115.622 177.898 116.425 174.682C116.682 173.649 117.163 172.931 117.664 172.295C118.783 170.875 122.121 171.789 123.226 171.454C124.977 170.924 125.942 169.714 126.713 168.743C128.421 166.633 129.696 165.021 130.299 164.519C130.569 164.283 130.768 164.083 130.973 163.878" stroke="black" stroke-width="2" stroke-linecap="round"/>
<path d="M110.261 186.199C109.996 186.597 108.864 187.731 107.256 188.94C106.718 189.344 106.444 188.821 106.242 188.118C104.968 183.686 104.631 179.766 104.631 179.597C104.631 178.752 104.229 181.369 103.628 182.708C103.034 184.033 101.755 185.386 100.679 186.898C100.467 187.196 100.344 187.401 100.142 187.305C98.2472 186.395 97.9969 183.388 97.5294 182.784C97.1408 182.283 96.3882 182.712 95.8543 182.979C95.1007 183.357 91.9884 184.512 87.9346 186.254C86.4743 186.882 86.2032 186.935 86.0996 186.869C85.3612 186.403 87.1282 182.937 87.9386 181.075C88.5032 179.778 88.7449 178.831 88.5469 177.989C87.9853 175.6 85.1334 180.227 83.5227 181.202C81.5331 182.407 79.1009 183.713 77.8612 184.286C76.7321 184.807 77.1503 182.117 77.0156 181.042C76.8272 179.539 76.6134 178.962 76.4134 178.627C76.0211 177.971 74.874 178.558 73.7037 178.758C73.1408 178.854 72.2076 178.891 71.7622 178.793C71.3168 178.694 71.3832 178.429 71.6496 177.994C72.31 176.915 73.1246 175.881 73.3609 175.177C73.6531 174.307 70.9931 175.139 69.3452 175.339C68.8278 175.402 67.8401 175.541 66.6004 175.442C66.1474 175.405 66.0906 175.143 66.0564 174.808C65.9752 174.012 66.0886 173.331 66.3219 172.831C66.9939 171.388 69.0908 170.056 72.7435 168.375C74.7902 167.433 76.4083 167.498 76.8115 167.398C77.1268 167.321 76.2133 166.629 75.8775 166.128C75.7403 165.923 75.9398 165.692 76.3068 165.457C77.9912 164.377 78.9561 164.55 81.2163 163.752C83.1991 163.051 86.9271 161.892 89.4055 161.011C94.706 159.127 95.9116 157.85 97.1855 156.644C98.3617 155.531 98.7952 154.765 99.866 153.63C102.299 151.051 102.684 149.742 103.188 148.767C103.666 147.842 103.959 146.991 104.895 144.951C105.099 144.443 105.166 144.112 105.233 143.841C105.3 143.571 105.367 143.372 105.636 142.965" stroke="black" stroke-width="2" stroke-linecap="round"/>
<path d="M122.326 125.069C122.326 125.135 122.326 125.202 121.63 127.392C120.933 129.583 119.539 133.897 118.257 137.28C116.063 143.072 114.619 145.578 114.419 145.713C113.497 146.339 113.149 142.781 111.909 140.923C111.24 139.921 109.797 142.891 108.33 145.258C104.058 152.15 104.028 152.817 103.961 152.919C103.898 153.018 103.762 152.425 103.594 150.162C103.426 147.9 103.227 143.786 103.025 141.733C102.823 139.68 102.624 139.812 102.422 139.98C102.004 140.328 100.09 141.614 97.1445 143.522C95.1525 144.811 94.3776 145.845 93.9432 146.347C93.725 146.599 93.4425 146.782 93.2063 146.387C92.4585 145.136 92.5658 142.511 92.6322 139.735C92.6908 137.283 93.1007 135.531 93.6004 134.029C94.9134 130.082 96.3824 129.095 96.856 128.355C97.2059 127.808 95.5841 128.956 94.7184 129.388C92.8674 130.313 90.1025 131.831 87.423 132.971C85.3797 133.839 84.1906 134.25 83.6547 134.319C81.9327 134.539 85.4534 129.103 87.2893 126.397C88.3408 124.847 89.8552 123.094 91.2376 121.64C92.6201 120.187 93.8809 119.125 95.3599 118.113C100.672 115.017 101.88 114.546 102.448 114.379C102.751 114.279 103.083 114.146 103.626 113.808" stroke="black" stroke-width="2" stroke-linecap="round"/>
<path d="M92.7665 117.025C92.5674 117.158 92.3683 117.291 89.4124 118.587C86.4564 119.883 80.7496 122.338 78.1415 123.238C75.5334 124.138 76.197 123.408 76.6716 122.833C77.1461 122.258 77.4116 121.86 79.7381 119.929C82.0647 117.999 86.4443 114.548 88.5678 112.77C90.6913 110.993 90.4258 110.993 88.9287 111.424C87.4317 111.856 84.711 112.718 78.5648 113.893C72.4186 115.067 62.9294 116.527 57.5433 117.279C52.1572 118.031 51.1619 118.031 50.7818 117.832C50.4017 117.633 50.6672 117.235 51.0362 116.797C51.8281 115.859 53.0782 114.886 55.5445 113.385C57.2436 112.351 60.0016 111.021 63.7589 109.54C67.5161 108.059 72.2276 106.533 75.9155 105.514C79.6034 104.496 82.125 104.031 83.6231 103.726C85.1212 103.42 85.5193 103.287 85.9899 103.219C86.4604 103.151 86.9913 103.151 87.5382 103.151" stroke="black" stroke-width="2" stroke-linecap="round"/>
<path d="M83.4099 101.62C73.2781 100.913 63.1464 100.206 54.0392 99.7828C44.9321 99.3598 37.1566 99.242 33.2688 98.9457C29.381 98.6493 29.6167 98.1781 30.0326 97.6997C30.9397 96.6563 33.765 95.2043 38.7452 93.3032C44.8663 90.9667 49.6053 91.2665 50.5602 91.2665C51.019 91.2665 44.7821 90.0884 36.9941 88.0678C32.5758 86.9214 30.934 86.1507 30.5752 85.8543C28.7603 84.3555 40.0483 84.1264 45.7193 83.7123C48.1417 83.5354 52.5006 83.2982 54.4516 83.1179C56.4026 82.9376 55.8136 82.8198 52.3292 81.581C48.8448 80.3422 42.483 77.986 37.792 75.7119C33.101 73.4378 30.2735 71.3172 28.9348 70.048C27.596 68.7789 27.8316 68.4254 28.1297 68.1845C31.0639 65.8125 38.299 67.5829 41.5727 67.5276C43.9835 67.4868 35.3644 64.6269 27.5068 61.1711C23.6862 59.4908 20.713 57.6011 18.8548 56.2838C18.402 55.9628 20.5666 55.3306 25.0006 54.9736C34.0009 54.2489 39.3843 54.8522 38.1401 54.6755C36.2507 54.4071 33.4473 53.3099 28.4136 51.5356C25.0967 50.3665 20.4345 48.112 17.1233 46.4305C11.9268 43.7916 8.57488 40.9433 5.54571 38.1534C2.88401 35.7018 1.77754 33.6747 1.36163 32.6662C0.917436 31.5891 0.942153 30.1083 1.11887 28.7999C1.1878 28.2895 1.64902 28.1983 2.12562 28.3143C3.25705 28.5898 6.62564 31.2685 11.2042 34.6583C15.7994 38.0604 20.5631 41.8715 22.8871 43.0657C23.7828 43.5259 25.1898 44.3634 25.8003 44.317C26.4108 44.2706 26.1751 43.3281 24.2866 40.3686C22.398 37.409 18.8637 32.4609 16.6307 29.0284C13.3413 23.972 12.3698 21.4188 11.422 19.4071C7.90907 11.9513 8.43922 6.78527 9.14966 3.98993C9.45196 2.80047 10.4563 1.78365 11.6433 1.06786C12.6782 0.44381 15.7935 4.13273 21.8965 11.769C25.8788 16.7518 30.7091 24.7068 33.4955 29.0658C37.6672 35.592 39.8484 37.9445 41.4567 38.9066C42.4309 39.4895 41.9975 36.5308 40.5249 31.5167C39.1791 26.9346 36.107 18.3736 34.413 13.0007C32.1454 5.80855 31.8836 3.32948 31.9407 2.73328C31.9612 2.51929 32.5869 2.84395 35.1859 8.26683C37.7849 13.6897 42.4973 24.2927 45.7496 31.0508C50.3275 40.5634 52.8219 43.6601 53.7715 44.7294C54.6106 45.6741 55.5601 46.0449 56.2723 46.1645C56.9839 46.284 57.4665 45.5737 58.1162 45.2149C60.7031 43.7864 63.5177 47.348 66.0845 48.5404C70.3379 50.5162 74.1064 50.2111 76.2645 50.6842C78.2404 51.1173 80.1897 51.4035 81.6195 51.0447C83.409 50.5957 85.5448 52.4674 87.685 53.8347C89.9468 55.2797 91.4925 56.6301 93.3399 58.4151C94.9614 59.9817 95.8979 61.3925 97.3277 63.0561C98.761 64.7239 100.653 66.3834 103.507 69.9481C106.025 73.0922 107.922 75.3156 109.221 76.9132C113.98 82.7638 116.247 83.8837 118.562 86.3738C122.955 91.0983 124.458 92.4518 125.592 93.7602C127.108 95.5104 129.927 97.207 137.585 103.737C141.458 107.039 145.993 109.824 147.961 111.136C149.469 112.14 151.469 113.394 152.724 114.823C153.975 116.253 155.632 117.913 157.363 119.702C157.781 120.062 158.252 120.298 159.452 121.255" stroke="black" stroke-width="2" stroke-linecap="round"/>
<path d="M184.497 131.948C181.778 127.644 180.758 126.279 179.936 125.374C178.519 123.813 177.471 122.71 176.562 121.942C174.555 120.247 171.86 118.062 170.89 117.291C170.181 116.727 169.305 116.13 168.226 115.703C166.376 114.97 165.106 113.973 163.324 113.153C161.821 112.461 160.741 112.271 159.437 111.903C158.528 111.646 157.396 111.533 156.235 111.392C153.538 111.419 152.517 111.645 150.989 111.731C150.644 111.759 150.476 111.815 149.792 111.873" stroke="black" stroke-width="2" stroke-linecap="round"/>
<path d="M164.955 112.194C169.741 108.106 174.527 104.018 177.591 101.513C180.654 99.0081 181.851 98.2105 184.212 96.5532C186.573 94.896 190.063 92.4033 192.958 90.5708C195.852 88.7383 198.046 87.6415 200.622 86.0295C206.221 82.5257 209.367 79.7676 210.02 79.0636C212.205 76.7061 216.712 74.4317 219.03 72.8712C221.217 71.3983 224.351 69.9056 226.638 68.9387C228.198 68.2791 230.007 67.6818 234.77 65.9762C241.862 63.4368 247.132 61.9381 248.338 61.6374C251.187 60.927 253.477 59.5239 256.441 58.3667C258.138 57.7043 261.016 56.4058 265.036 54.7984C268.715 53.3275 271.301 52.07 273.309 51.4174C275.706 50.6379 280.74 49.1574 286.629 47.4457C289.401 46.6397 293.433 45.2325 299.168 42.7685C304.77 40.3615 306.751 38.2772 308.868 36.5141C310.257 35.3571 312.586 32.9473 315.304 30.4305C316.575 29.2528 319.626 26.412 324.153 21.984C328.008 18.2144 329.618 16.6255 331.379 14.0074C331.85 13.3082 332.234 12.6009 332.49 12.391C334.144 11.0304 332.548 19.3206 331.441 22.3451C330.493 24.9335 329.128 27.8774 327.565 30.4063C326.384 32.3156 323.889 33.7329 318.136 37.8375C314.261 40.6023 306.709 44.6282 302.459 47.1859C295.98 51.0854 293.687 53.2575 291.117 55.9269C290.306 56.7688 290.641 56.7019 291.443 56.152C292.245 55.6021 293.542 54.605 297.55 52.3465C301.557 50.088 308.238 46.5982 312.178 44.4515C317.181 41.7253 319.937 39.8906 322.856 38.2303C325.757 36.5797 328.306 34.8508 329.565 34.094C329.982 33.8428 330.125 34.2345 330.077 34.588C329.865 36.137 328.324 38.4524 324.753 43.6886C322.715 46.6764 320.868 47.5288 318.604 48.9897C318.048 49.3488 317.647 49.6438 314.949 50.9445C312.25 52.2453 307.265 54.5386 304.398 55.8196C298.582 58.418 294.581 61.1253 293.675 62.1813C293.315 62.6 293.366 62.9382 293.566 63.0424C295.676 64.1456 300.098 61.2341 303.727 60.3291C308.314 59.1852 314.607 58.1099 317.326 57.6083C319.321 57.2404 322.155 57.2035 324.73 56.9527C325.288 56.8984 325.786 56.9013 325.894 57.001C326.154 57.243 321.206 58.9015 311.77 61.8142C306.55 63.4255 300.34 64.9263 297.006 65.7481C292.582 66.8385 291.254 67.2739 291.001 67.4749C289.913 68.3359 294.164 67.5791 299.823 67.1259C303.269 66.8499 309.259 66.7754 312.84 66.7225C320.358 66.6115 325.182 68.2801 326.793 68.7318C327.431 68.9109 327.605 69.2832 327.559 69.537C327.512 69.7908 327.213 69.9902 321.076 70.2924C314.939 70.5945 302.975 70.9933 296.462 71.2985C289.241 71.6368 287.036 72.2079 284.571 72.5599C281.883 72.9437 278.078 73.8154 275.848 74.7747C275.41 74.9632 275.044 75.3261 274.889 75.6297C274.199 76.9747 276.845 78.6497 283.065 84.4206C286.381 87.4972 288.127 89.2277 288.03 89.6809C287.443 92.4325 280.604 88.7352 276.96 87.2713C276.346 87.0247 275.951 86.9163 275.795 87.0145C274.816 87.6321 277.746 90.5239 278.862 92.3489C278.969 92.5242 278.567 92.5543 275.472 91.7068C272.376 90.8593 266.494 89.1643 263.214 88.2911C259.934 87.4179 259.436 87.4179 259.029 87.368C258.623 87.3182 258.324 87.2185 258.17 87.9149C257.255 92.0469 258.318 95.9504 257.416 98.5413C256.861 100.134 253.701 100.005 246.43 99.4598C242.334 99.1526 235.494 97.5155 231.8 96.798C228.106 96.0804 227.807 95.9806 227.653 96.0788C226.553 96.7799 229.898 102.386 231.676 105.892C231.84 106.216 231.433 106.35 231.129 106.352C229.508 106.36 226.707 105.951 218.466 105.899C216.727 105.887 216.229 106.048 215.922 106.249C215.616 106.45 215.516 106.749 215.514 107.053C215.508 108.422 216.918 109.97 218.379 111.283C218.726 111.595 219.033 111.886 218.888 112.139C218.456 112.895 210.33 108.642 203.684 110C201.309 110.485 203.938 115.813 203.684 116.167C202.695 117.544 197.584 114.144 196.374 114.954C195.176 115.755 189.565 115.86 186.403 115.712C186.096 115.698 185.8 115.661 185.746 115.81C185.692 115.96 185.891 116.259 185.645 116.513C184.157 118.046 182.374 116.869 181.72 117.069C180.271 117.51 180.96 119.685 180.81 120.439C180.736 120.817 180.362 121.093 180.008 121.247C178.667 121.832 177.34 120.398 176.13 119.842C174.92 119.187 174.014 118.885 173.411 118.634C173.107 118.483 172.808 118.283 172.5 118.078" stroke="black" stroke-width="2" stroke-linecap="round"/>
<path d="M195.114 127.812C195.538 128.119 196.392 129.051 197.438 130.426C197.667 130.727 197.789 130.837 198.022 130.896C198.6 130.955 199.263 130.994 199.883 131.071C200.195 131.11 200.502 131.149 200.819 131.188" stroke="black" stroke-width="2" stroke-linecap="round"/>
<path d="M197.248 130.342C197.119 130.99 196.989 131.639 196.987 131.973C196.985 132.307 197.115 132.307 197.246 132.22C197.378 132.134 197.508 131.961 197.639 131.807C197.771 131.653 197.901 131.523 198.034 131.128" stroke="black" stroke-width="2" stroke-linecap="round"/>
<path d="M62.3716 240.27C65.807 241.691 68.8798 242.897 71.1207 243.675C73.3431 244.445 74.8065 244.814 76.2765 245.174C77.9793 245.591 79.8286 246.369 81.6307 246.79C83.6572 247.263 85.5184 248.164 86.8663 248.585C87.7378 248.857 88.6917 249.124 90.9497 249.243C92.7323 249.338 95.8138 249.363 97.5782 249.364C99.3426 249.364 99.6979 249.305 101.776 249.275C103.855 249.244 107.646 249.244 109.865 249.303C112.622 249.377 114.825 249.603 117.605 249.574C118.726 249.562 119.259 249.485 121.014 249.395C122.769 249.305 125.731 249.187 127.434 249.096C129.138 249.005 129.493 248.946 131.394 248.916C133.295 248.885 136.73 248.885 140.269 248.885" stroke="black" stroke-width="2" stroke-linecap="round"/>
<path d="M135.064 261.09C134.412 261.09 133.761 261.09 127.946 260.498C122.132 259.906 111.174 258.721 104.404 258.052C97.6335 257.382 95.3827 257.264 94.1344 257.173C92.7042 257.069 91.9922 256.962 89.6445 256.725C87.8237 256.542 84.7498 256.014 82.8966 255.77C80.5184 255.457 78.658 255.23 76.1209 254.663C71.6435 253.662 69.2564 252.777 68.2692 252.357C66.5013 251.518 65.9628 251.28 65.6047 251.041C65.4243 250.921 65.2466 250.802 64.7046 250.501" stroke="black" stroke-width="2" stroke-linecap="round"/>
<path d="M64.7045 251.219C64.586 251.219 61.5634 252.166 56.9874 253.661C55.3669 254.191 55.1952 254.327 55.0741 254.27C54.9529 254.213 54.8937 253.976 54.8928 253.765C54.8877 252.562 56.6814 250.985 57.5519 250.323C58.5109 249.593 59.9732 249.485 60.8123 249.216C61.3596 249.04 61.8309 248.826 62.0113 248.647C62.5649 248.099 61.3552 247.451 61.0869 247.182C60.4753 246.568 58.4332 247.449 57.1696 247.598C56.0963 247.725 53.9496 247.808 52.6519 247.63C51.7591 247.507 50.7116 247.033 48.9472 246.435C46.6595 245.66 46.0413 245.059 45.2623 244.252C45.0931 244.077 45.1403 243.863 45.4661 243.772C47.3386 243.246 48.4859 243.978 49.6508 244.188C50.208 244.289 51.1639 244.219 51.5633 244.189C51.9626 244.159 51.7849 244.1 51.4565 243.892C49.2115 242.469 46.9998 240.812 46.2199 240.272C45.8661 240.027 45.6195 239.733 45.5002 239.346C45.364 238.903 45.3198 238.477 45.4382 238.208C45.7514 237.496 46.9316 238.593 47.9484 239.161C48.8058 239.639 49.6239 240.029 52.1897 240.835C52.7857 241.022 53.0916 240.988 53.0961 240.84C53.143 239.29 50.9485 238.181 50.4666 237.401C49.9942 236.636 49.7477 236.143 49.6876 235.785C49.6577 235.607 49.7459 235.427 49.8653 235.306C50.3571 234.807 51.1208 235.005 51.5686 234.945C51.7777 234.917 51.9572 235.004 52.1672 235.271C53.2172 236.608 53.2747 238.109 53.5753 239.011C53.8127 239.723 54.6496 240.029 55.3684 240.269C56.0873 240.509 56.6257 240.629 56.8653 240.54C57.6281 240.257 56.6275 238.658 56.4785 237.939C56.3315 237.23 56.2685 236.563 56.3574 236.026C56.4384 235.536 56.9847 235.364 57.3428 235.275C57.6914 235.187 58.0616 235.363 58.3605 235.631C58.9384 236.15 58.9609 237.035 59.1691 237.754C59.4007 238.554 60.3932 238.773 61.112 239.042C61.2924 239.132 61.4701 239.25 61.6505 239.371C61.8309 239.491 62.0086 239.609 62.3711 239.731" stroke="black" stroke-width="2" stroke-linecap="round"/>
<path d="M191.473 252.221C200.421 252.581 202.931 252.221 207.025 251.598C210.216 251.114 216.341 250.356 220.38 249.723C228.508 248.449 230.96 247.658 233.249 247.162C238.001 246.133 239.57 245.416 241.404 244.922C243.105 244.463 244.316 243.981 248.204 243.444C249.064 243.325 249.422 243.352 249.604 243.53C250.462 244.362 250.233 245.766 250.503 246.842C250.635 247.369 249.881 248.096 248.589 249.255C246.587 251.051 242.381 253.371 237.239 255.831C233.34 257.696 230.893 258.221 228.755 258.622C224.822 259.358 221.933 260.014 220.109 260.191C212.959 260.886 209.58 261.266 206.8 261.58C205.276 261.753 203.485 261.895 201.87 262.162C201.421 262.252 200.889 262.341 200.393 262.387C199.897 262.432 199.454 262.432 198.997 262.432" stroke="black" stroke-width="2" stroke-linecap="round"/>
<path d="M248.712 242.278C249.876 240.13 250.942 237.107 251.8 235.203C251.899 234.983 252.377 235.199 252.604 235.378C253.721 236.256 253.995 238.596 254.22 239.633C254.453 240.711 256.054 237.806 256.771 236.638C257.108 236.089 257.577 235.651 258.069 235.515C258.558 235.38 258.744 236.363 258.878 236.899C259.184 238.122 258.298 239.319 258.341 239.678C258.488 240.904 260.799 238.875 262.322 238.561C263.829 238.25 265.459 237.978 265.908 238.111C267.366 238.543 263.497 241.02 261.752 242.407C260.354 243.517 258.214 243.621 257.272 243.666C257.135 243.672 259.974 243.89 263.558 244.023C264.754 244.067 264.658 244.422 264.435 244.736C263.924 245.458 263.226 245.948 262.69 246.262C261.499 246.957 259.735 246.755 256.695 246.89C255.912 246.925 259.096 248.276 259.996 249.261C260.215 249.5 260.353 249.797 260.445 250.067C260.536 250.337 260.536 250.603 260.359 250.784C259.463 251.701 257.677 250.877 256.019 250.565C254.484 250.277 253.286 249.893 252.209 249.535C251.939 249.445 251.673 249.356 251.403 249.266C251.133 249.176 250.867 249.087 250.324 248.996" stroke="black" stroke-width="2" stroke-linecap="round"/>
<path d="M154.773 275.588C154.656 275.588 154.539 275.588 146.543 275.763C138.547 275.938 122.675 276.288 113.974 276.351C105.273 276.415 104.222 276.182 100.763 274.836C97.3048 273.49 91.4696 271.04 88.1719 269.66C84.8741 268.281 84.2906 268.048 83.8149 267.811" stroke="black" stroke-width="2" stroke-linecap="round"/>
<path d="M160.077 247.65C159.96 247.65 159.844 247.65 154.765 246.366C149.687 245.082 139.65 242.515 134.188 241.075C126.105 238.945 121.431 237.868 118.769 236.985C115.366 235.857 113.523 235.039 111.986 234.566C111.628 234.456 111.281 234.331 110.925 234.33C108.611 234.318 105.276 237.153 103.382 238.039C101.238 239.042 99.2568 239.749 97.6654 240.807C95.0556 242.541 93.7187 244.806 92.0053 246.583C91.7064 246.939 91.5897 247.289 91.4129 247.644C91.2361 248 91.0027 248.35 90.7622 248.711" stroke="black" stroke-width="2" stroke-linecap="round"/>
<path d="M105.969 235.979C100.668 234.685 99.2569 234.211 97.7239 233.624C95.8496 232.906 90.338 235.258 86.8775 236.625C85.1859 237.293 83.1094 238.335 81.2793 239.746C80.5136 240.336 79.6861 240.927 78.8037 241.516C78.3882 241.754 78.0381 241.871 77.3237 242.345" stroke="black" stroke-width="2" stroke-linecap="round"/>
<path d="M70.5236 253.57C70.0567 254.037 67.8096 256.561 62.3299 263.868C59.0511 268.24 56.5849 270.743 52.7001 274.396C50.9714 276.022 49.3917 276.528 47.9753 276.884C46.3837 277.283 44.5609 274.888 40.9696 271.181C38.5881 268.724 35.4863 265.226 33.3608 262.513C31.2961 259.878 29.4743 258.153 27.8174 256.848C26.5287 255.833 24.99 255.55 23.5736 255.723C22.1379 255.899 18.879 257.658 16.384 258.963C14.4186 259.991 12.2658 261.548 10.4303 262.676C8.43936 263.9 7.42787 266.732 6.3015 268.509C5.53586 270.276 3.8914 274.032 3.35208 276.348C3.29373 276.762 1.09363 284.272 7.37472 280.086" stroke="black" stroke-width="2" stroke-linecap="round"/>
<path d="M7.65527 279.831C9.75948 278.664 18.8557 271.572 20.6328 270.317C22.0464 269.318 26.2151 268.572 27.6106 272.061C27.9993 273.033 32.0699 282.366 33.5418 286.277C36.333 293.692 38.9897 294.223 48.2929 292.57C51.1456 292.063 56.006 290.469 59.3479 289.514C62.6899 288.559 64.3237 288.093 68.4331 286.277C72.5425 284.461 79.0779 281.31 82.9115 279.511C86.745 277.713 87.6786 277.363 88.3346 277.124C88.9907 276.886 89.3408 276.769 90.4088 275.941" stroke="black" stroke-width="2" stroke-linecap="round"/>
<path d="M91.8069 275.55C87.5613 274.489 102.372 281.341 111.857 285.051C116.491 286.864 117.974 288.596 122.509 293.248C131.792 302.77 131.099 312.471 134.372 324.744C135.767 329.977 135.787 334.358 136.731 337.729C137.321 339.835 136.854 339.824 137.861 342.188C138.06 342.656 139.443 345.336 139.679 345.574C140.159 346.062 142.455 346.03 143.509 345.788C145.726 345.28 147.14 342.798 149.025 340.793C151.258 338.418 153.704 336.593 155.654 333.815C157.005 331.891 157.128 329.349 157.835 327.639C158.407 326.257 158.957 324.383 158.134 323.691C155.654 321.604 149.341 327.939 147.63 328.233C145.354 328.623 144.839 324.313 144.839 322.302C144.839 320.557 143.55 305.942 142.455 297.993C142.068 295.183 141.808 293.044 141.277 291.038C140.642 288.637 139.806 287.265 138.862 285.849C137.334 283.558 134.268 281.366 133.145 280.307C131.672 279.481 130.024 278.303 128.608 277.418C128.252 277.239 127.902 277.122 127.188 277.002" stroke="black" stroke-width="2" stroke-linecap="round"/>
<path d="M161.203 250.446C160.993 250.865 160.624 253.696 160.411 258.208C160.321 260.103 160.825 261.203 161.354 262.422C163.629 266.82 164.53 268.039 164.846 268.381C165.005 268.567 165.162 268.776 165.324 268.992" stroke="black" stroke-width="2" stroke-linecap="round"/>
<path d="M161.996 249.337C162.416 248.495 163.679 247.02 164.792 246.064C165.406 245.537 166.114 245.428 167.064 245.217C167.588 245.1 168.174 245.005 169.853 244.926C173.619 244.748 176.416 244.951 177.049 245.057C178.429 245.287 179.691 245.637 180.458 246.033C181.858 246.754 183.387 248.116 184.236 248.754C185.227 249.497 186.031 250.285 187.035 251.209C187.991 252.088 188.675 252.662 189.256 253.192C190.061 253.925 190.786 255.091 191.975 256.912C192.593 257.858 193.059 259.155 193.537 260.586C193.996 261.966 194.331 263.228 194.488 263.917C194.646 264.605 194.752 265.447 194.964 266.32C195.198 267.284 195.332 268.56 195.466 269.859C195.508 270.262 195.651 270.68 195.756 272.253C196.002 275.912 195.863 278.657 195.758 279.29C195.546 280.402 195.388 281.035 195.204 281.693C195.072 282.038 194.863 282.404 194.648 282.782" stroke="black" stroke-width="2" stroke-linecap="round"/>
<path d="M179 260C182.217 262.188 185.434 264.375 187.349 265.567C189.264 266.758 189.778 266.887 189.207 266.953C188.636 267.019 186.963 267.019 185.239 267.019" stroke="black" stroke-width="2" stroke-linecap="round"/>
<path d="M188.265 273.918C188.418 275.041 188.571 276.164 188.701 276.641C188.831 277.117 188.933 276.913 189.063 276.578C189.366 275.792 189.503 275.055 189.222 274.209C189.016 273.588 188.38 272.699 188.014 272.302C187.648 271.905 187.495 272.058 187.39 272.265C186.948 273.139 186.873 274.221 186.77 275.281C186.747 275.514 186.82 275.719 186.923 275.875C187.026 276.031 187.179 276.134 187.36 276.186C187.541 276.239 187.745 276.239 187.85 276.111C187.956 275.983 187.956 275.728 187.879 275.546C187.802 275.363 187.649 275.261 187.337 275.156" stroke="black" stroke-width="2" stroke-linecap="round"/>
<path d="M194.381 283.098C192.759 283.725 188.564 284.099 185.158 283.098C180.651 281.772 179.356 279.193 177.842 277.992C176.328 276.792 174.819 276.04 173.305 275.093C171.846 274.18 170.283 273.016 168.769 272.32C167.255 271.375 166.246 270.494 165.743 269.74C165.489 269.36 165.24 268.986 164.983 268.6" stroke="black" stroke-width="2" stroke-linecap="round"/>
<path d="M167.182 270.426C161.102 265.411 160.033 264.656 159.658 264.499C159.481 264.425 159.283 264.529 159.124 264.654C158.795 264.915 158.714 265.343 158.683 265.75C158.571 267.223 159.964 269.105 160.873 270.107C162.917 272.358 164.167 272.996 164.921 273.404C165.11 273.499 165.296 273.561 165.889 273.593C166.482 273.625 167.476 273.625 168.876 273.437" stroke="black" stroke-width="2" stroke-linecap="round"/>
<path d="M192.209 255.937C192.209 255.44 192.333 254.998 192.614 254.684C192.749 254.534 192.958 254.495 193.147 254.556C193.575 254.695 193.901 255.244 194.214 255.807C194.403 256.494 194.467 257.623 194.405 258.845C194.343 259.322 194.219 259.508 193.903 260.076" stroke="black" stroke-width="2" stroke-linecap="round"/>
<path d="M155.181 275.147C158.485 274.893 160.823 274.762 161.977 274.698C162.495 274.635 162.876 274.508 163.645 274.442C164.413 274.377 165.557 274.377 166.736 274.377" stroke="black" stroke-width="2" stroke-linecap="round"/>
<path d="M171.131 262.534C171.133 262.484 172.181 261.681 173.868 260.471C174.708 259.97 174.992 259.855 175.157 259.774C175.246 259.74 175.346 259.719 175.524 259.7" stroke="black" stroke-width="2" stroke-linecap="round"/>
<path d="M183 257.1C183.508 256.798 184.015 256.495 184.504 256.225C184.994 255.954 185.449 255.724 185.821 255.561C186.194 255.398 186.47 255.31 186.758 255.144" stroke="black" stroke-width="2" stroke-linecap="round"/>
<path d="M88.9523 256.618C87.0526 259.943 85.9553 262.13 85.716 263.028C85.4767 263.807 85.2357 264.53 85.0558 265.426C84.9946 265.966 84.9946 266.678 84.9946 267.412" stroke="black" stroke-width="2" stroke-linecap="round"/>
<path d="M183.909 248.847C183.878 248.847 183.847 248.847 182.577 248.985C181.306 249.122 178.797 249.398 177.366 249.57C175.657 249.776 174.458 249.898 172.807 249.898C172.073 249.898 171.554 249.776 170.658 249.561C168.5 249.041 167.001 248.631 166.6 248.584C166.26 248.569 166.01 248.538 165.611 248.492C165.304 248.476 164.784 248.476 164.062 248.383" stroke="black" stroke-width="2" stroke-linecap="round"/>
<path d="M163.5 265.5C165.5 264.5 164.311 248.956 164.294 248.469C164.278 247.983 164.309 247.86 164.34 247.751C164.371 247.642 164.402 247.55 164.433 247.456" stroke="black" stroke-width="2" stroke-linecap="round"/>
<path d="M163.691 244.766C161.529 247.36 160.911 248.164 160.678 248.505C160.465 248.818 161.708 247.031 162.114 245.836C162.17 245.672 162.024 245.633 161.915 245.632C161.45 245.63 161.096 246.063 160.294 246.711C159.51 247.345 159.302 247.826 159.332 247.919C159.546 247.829 159.948 247.489 160.38 247.026C160.568 246.809 160.69 246.625 160.816 246.436" stroke="black" stroke-width="2" stroke-linecap="round"/>
<path d="M161.188 245.323C161.188 245.262 161.096 245.077 160.957 244.952C160.909 245.195 160.94 245.569 161.017 245.846C161.063 245.971 161.124 246.063 161.28 246.25" stroke="black" stroke-width="2" stroke-linecap="round"/>
<path d="M160.725 244.297C159.15 238.47 157.63 234.209 156.242 231.946C154.061 228.392 150.709 227.757 149.159 227.318C147.636 226.887 146.018 225.452 144.03 223.467C142.731 222.169 141.881 220.365 141.162 218.852C140.845 218.294 140.525 217.421 140.287 215.404C140.206 214.016 140.206 211.89 140.206 209.7" stroke="black" stroke-width="2" stroke-linecap="round"/>
<path d="M162.395 246.922C162.395 247 162.395 247.079 158.695 245.112C154.994 243.145 147.593 239.129 143.662 237.297C139.731 235.464 139.494 235.936 138.979 236.574C137.765 238.074 136.314 239.045 135.243 239.443C134.285 239.798 132.818 239.764 130.324 239.37C126.51 238.768 124.222 237.22 122.801 236.43C119.534 234.615 116.198 232.694 114.213 230.988C113.33 230.148 112.7 229.361 111.706 227.774C110.712 226.187 109.374 223.825 107.995 221.391" stroke="black" stroke-width="2" stroke-linecap="round"/>
<path d="M108.949 220.198C114.145 222.246 118.004 223.3 120.423 223.103C126.078 222.643 128.354 217.576 128.631 217.258C129.402 216.37 130.895 218.127 131.851 218.527C132.314 218.721 132.806 218.846 133.204 218.847C134.306 218.85 134.555 215.994 135.153 213.922C135.273 213.52 135.352 213.284 135.511 213.083C135.669 212.883 139.71 209.423 139.954 209.26" stroke="black" stroke-width="2" stroke-linecap="round"/>
</svg>
