<svg  viewBox="0 0 24 24" fill="none" xmlns="http://www.w3.org/2000/svg">
<path d="M2.40039 5.39999H21.6004M9.60039 17.4V10.2M14.4004 17.4V10.2M16.8004 22.2H7.20039C5.87491 22.2 4.80039 21.1255 4.80039 19.8V6.59999C4.80039 5.93725 5.33765 5.39999 6.00039 5.39999H18.0004C18.6631 5.39999 19.2004 5.93725 19.2004 6.59999V19.8C19.2004 21.1255 18.1259 22.2 16.8004 22.2ZM9.60039 5.39999H14.4004C15.0631 5.39999 15.6004 4.86273 15.6004 4.19999V2.99999C15.6004 2.33725 15.0631 1.79999 14.4004 1.79999H9.60039C8.93765 1.79999 8.40039 2.33725 8.40039 2.99999V4.19999C8.40039 4.86273 8.93765 5.39999 9.60039 5.39999Z" stroke="#98B7DE" stroke-width="1.5" stroke-linecap="round" stroke-linejoin="round"/>
</svg>
