<svg width="30" height="28" viewBox="0 0 30 28" fill="none" xmlns="http://www.w3.org/2000/svg">
<path fill-rule="evenodd" clip-rule="evenodd" d="M29.3672 13.5033C29.1849 12.8502 28.5875 12.2734 27.8741 12.0616C27.3347 11.9016 23.5416 11.6031 20.8505 11.509L19.5545 11.4637L19.0304 10.5221C18.7421 10.0043 18.5063 9.54987 18.5063 9.51233C18.5063 9.47283 18.7147 9.44393 18.9996 9.44386C19.8495 9.44373 20.2413 9.12571 20.2413 8.4361C20.2413 8.1376 20.2043 7.99827 20.0781 7.82142C19.8185 7.45764 19.6015 7.40413 18.3854 7.40413L17.3077 7.40413L15.549 4.22533C13.1175 -0.169366 13.3102 0.14695 13.0102 0.057332C12.8565 0.0114349 12.3598 -0.00950812 11.7474 0.00409099L10.7381 0.0265976L10.5397 0.248671C10.4281 0.373579 10.3413 0.54826 10.3413 0.64801C10.3413 0.790053 12.1719 6.86832 13.3079 10.4979C13.4366 10.9093 13.5573 11.2951 13.5761 11.3554C13.6063 11.4516 13.4771 11.4704 12.5032 11.5113C10.2102 11.6074 7.81775 11.7857 5.45414 12.0365C4.73093 12.1132 4.12481 12.1617 4.10733 12.1442C4.08977 12.1267 3.45304 11.2137 2.69241 10.1152L1.30934 8.11808L0.69193 8.09857C0.154403 8.08157 0.0660874 8.09496 0.00886309 8.20178C-0.0380844 8.2895 0.0907875 9.13407 0.460115 11.1585L0.977159 13.9925L0.460521 16.8344C0.0999709 18.8176 -0.0367898 19.7124 0.00791272 19.7958C0.061597 19.8961 0.169374 19.9153 0.67805 19.9153L1.28423 19.9153L2.6999 17.8689L4.11556 15.8223L4.45577 15.8614C6.7342 16.1229 9.50844 16.3455 11.8382 16.4537C12.7925 16.498 13.5788 16.5381 13.5855 16.5427C13.5921 16.5474 13.3116 17.4841 12.9621 18.6242C12.6125 19.7644 11.8798 22.1547 11.3339 23.936C10.788 25.7173 10.3413 27.2544 10.3413 27.3517C10.3413 27.4511 10.4283 27.626 10.5397 27.7507L10.7381 27.9728L11.7895 27.9944C12.5873 28.0109 12.8971 27.9927 13.0739 27.9189C13.3201 27.816 13.145 28.117 16.6937 21.7002L17.3048 20.5953L18.3999 20.5953C19.3358 20.5953 19.5291 20.577 19.7299 20.4694C20.1044 20.2687 20.2413 20.0325 20.2413 19.5874C20.2413 18.8741 19.8517 18.5554 18.9798 18.5554C18.5991 18.5554 18.501 18.5351 18.5183 18.4597C18.5304 18.4071 18.7699 17.9485 19.0506 17.4406L19.5609 16.5172L20.1052 16.516C21.3855 16.5129 26.4672 16.1779 27.4197 16.0338C28.8128 15.823 29.6948 14.6769 29.3672 13.5033Z" fill="white"/>
</svg>
